<svg xmlns="http://www.w3.org/2000/svg" width="900" height="420" viewBox="0 0 900 420">
<rect width="100%" height="100%" fill="#0f172a" />
<text x="52" y="32" fill="#e2e8f0" font-size="22" font-family="sans-serif">Architecture mutation timeline</text>
<line x1="52" y1="368" x2="848" y2="368" stroke="#94a3b8" />
<line x1="52" y1="52" x2="52" y2="368" stroke="#94a3b8" />
<polyline fill="none" stroke="#ef4444" stroke-width="3" points="52.00,303.75 55.20,303.75 58.39,303.75 61.59,367.37 64.79,368.00 67.98,368.00 71.18,368.00 74.38,368.00 77.57,368.00 80.77,368.00 83.97,368.00 87.16,368.00 90.36,368.00 93.56,368.00 96.76,368.00 99.95,368.00 103.15,368.00 106.35,368.00 109.54,368.00 112.74,368.00 115.94,368.00 119.13,368.00 122.33,368.00 125.53,368.00 128.72,368.00 131.92,368.00 135.12,368.00 138.31,368.00 141.51,368.00 144.71,368.00 147.90,368.00 151.10,368.00 154.30,368.00 157.49,368.00 160.69,368.00 163.89,368.00 167.08,368.00 170.28,368.00 173.48,368.00 176.67,368.00 179.87,368.00 183.07,368.00 186.27,368.00 189.46,368.00 192.66,368.00 195.86,368.00 199.05,368.00 202.25,368.00 205.45,368.00 208.64,368.00 211.84,368.00 215.04,368.00 218.23,368.00 221.43,368.00 224.63,368.00 227.82,368.00 231.02,368.00 234.22,368.00 237.41,368.00 240.61,368.00 243.81,368.00 247.00,368.00 250.20,368.00 253.40,368.00 256.59,368.00 259.79,368.00 262.99,368.00 266.18,368.00 269.38,368.00 272.58,368.00 275.78,368.00 278.97,368.00 282.17,368.00 285.37,368.00 288.56,368.00 291.76,368.00 294.96,368.00 298.15,368.00 301.35,368.00 304.55,368.00 307.74,368.00 310.94,368.00 314.14,368.00 317.33,368.00 320.53,368.00 323.73,368.00 326.92,368.00 330.12,368.00 333.32,368.00 336.51,368.00 339.71,368.00 342.91,368.00 346.10,368.00 349.30,368.00 352.50,368.00 355.69,368.00 358.89,368.00 362.09,368.00 365.29,368.00 368.48,368.00 371.68,368.00 374.88,368.00 378.07,368.00 381.27,368.00 384.47,368.00 387.66,368.00 390.86,368.00 394.06,368.00 397.25,368.00 400.45,368.00 403.65,368.00 406.84,368.00 410.04,368.00 413.24,368.00 416.43,368.00 419.63,368.00 422.83,368.00 426.02,368.00 429.22,368.00 432.42,368.00 435.61,368.00 438.81,368.00 442.01,368.00 445.20,368.00 448.40,368.00 451.60,368.00 454.80,368.00 457.99,368.00 461.19,368.00 464.39,368.00 467.58,368.00 470.78,368.00 473.98,368.00 477.17,368.00 480.37,368.00 483.57,368.00 486.76,368.00 489.96,368.00 493.16,368.00 496.35,368.00 499.55,368.00 502.75,368.00 505.94,368.00 509.14,368.00 512.34,368.00 515.53,368.00 518.73,368.00 521.93,368.00 525.12,368.00 528.32,368.00 531.52,368.00 534.71,368.00 537.91,368.00 541.11,368.00 544.31,368.00 547.50,368.00 550.70,368.00 553.90,368.00 557.09,368.00 560.29,368.00 563.49,368.00 566.68,368.00 569.88,368.00 573.08,368.00 576.27,368.00 579.47,368.00 582.67,368.00 585.86,368.00 589.06,368.00 592.26,368.00 595.45,368.00 598.65,368.00 601.85,368.00 605.04,368.00 608.24,368.00 611.44,368.00 614.63,368.00 617.83,368.00 621.03,368.00 624.22,368.00 627.42,368.00 630.62,368.00 633.82,368.00 637.01,368.00 640.21,368.00 643.41,368.00 646.60,368.00 649.80,368.00 653.00,368.00 656.19,368.00 659.39,368.00 662.59,368.00 665.78,368.00 668.98,368.00 672.18,368.00 675.37,368.00 678.57,368.00 681.77,368.00 684.96,368.00 688.16,368.00 691.36,368.00 694.55,368.00 697.75,368.00 700.95,368.00 704.14,368.00 707.34,368.00 710.54,368.00 713.73,368.00 716.93,368.00 720.13,368.00 723.33,368.00 726.52,368.00 729.72,368.00 732.92,368.00 736.11,368.00 739.31,368.00 742.51,368.00 745.70,368.00 748.90,368.00 752.10,368.00 755.29,368.00 758.49,368.00 761.69,368.00 764.88,368.00 768.08,368.00 771.28,368.00 774.47,368.00 777.67,368.00 780.87,368.00 784.06,368.00 787.26,368.00 790.46,368.00 793.65,368.00 796.85,368.00 800.05,368.00 803.24,368.00 806.44,368.00 809.64,368.00 812.84,368.00 816.03,368.00 819.23,368.00 822.43,368.00 825.62,368.00 828.82,368.00 832.02,368.00 835.21,368.00 838.41,368.00 841.61,368.00 844.80,368.00 848.00,368.00" />
<polyline fill="none" stroke="#f59e0b" stroke-width="3" points="52.00,175.24 55.20,175.24 58.39,175.24 61.59,175.24 64.79,175.24 67.98,175.24 71.18,175.24 74.38,220.74 77.57,239.49 80.77,239.49 83.97,239.49 87.16,239.49 90.36,239.49 93.56,239.49 96.76,239.49 99.95,285.00 103.15,239.49 106.35,303.75 109.54,303.75 112.74,303.75 115.94,303.75 119.13,303.75 122.33,303.75 125.53,346.93 128.72,303.75 131.92,303.75 135.12,303.75 138.31,303.75 141.51,303.75 144.71,303.75 147.90,303.75 151.10,346.93 154.30,303.75 157.49,303.75 160.69,303.75 163.89,303.75 167.08,303.75 170.28,303.75 173.48,303.75 176.67,346.93 179.87,303.75 183.07,303.75 186.27,303.75 189.46,303.75 192.66,303.75 195.86,303.75 199.05,303.75 202.25,346.93 205.45,303.75 208.64,303.75 211.84,303.75 215.04,303.75 218.23,303.75 221.43,303.75 224.63,303.75 227.82,346.93 231.02,303.75 234.22,303.75 237.41,303.75 240.61,303.75 243.81,303.75 247.00,303.75 250.20,303.75 253.40,346.93 256.59,303.75 259.79,303.75 262.99,303.75 266.18,303.75 269.38,303.75 272.58,303.75 275.78,303.75 278.97,346.93 282.17,303.75 285.37,303.75 288.56,303.75 291.76,303.75 294.96,303.75 298.15,303.75 301.35,303.75 304.55,346.93 307.74,303.75 310.94,303.75 314.14,303.75 317.33,303.75 320.53,303.75 323.73,303.75 326.92,303.75 330.12,346.93 333.32,303.75 336.51,303.75 339.71,303.75 342.91,303.75 346.10,303.75 349.30,303.75 352.50,303.75 355.69,346.93 358.89,303.75 362.09,303.75 365.29,303.75 368.48,303.75 371.68,303.75 374.88,303.75 378.07,303.75 381.27,346.93 384.47,303.75 387.66,303.75 390.86,303.75 394.06,303.75 397.25,303.75 400.45,303.75 403.65,303.75 406.84,346.93 410.04,303.75 413.24,303.75 416.43,303.75 419.63,303.75 422.83,303.75 426.02,303.75 429.22,303.75 432.42,346.93 435.61,303.75 438.81,303.75 442.01,303.75 445.20,303.75 448.40,303.75 451.60,303.75 454.80,303.75 457.99,346.93 461.19,303.75 464.39,303.75 467.58,303.75 470.78,303.75 473.98,303.75 477.17,303.75 480.37,303.75 483.57,346.93 486.76,303.75 489.96,303.75 493.16,303.75 496.35,303.75 499.55,303.75 502.75,303.75 505.94,303.75 509.14,346.93 512.34,303.75 515.53,303.75 518.73,303.75 521.93,303.75 525.12,303.75 528.32,303.75 531.52,303.75 534.71,346.93 537.91,303.75 541.11,303.75 544.31,303.75 547.50,303.75 550.70,303.75 553.90,303.75 557.09,303.75 560.29,346.93 563.49,303.75 566.68,303.75 569.88,303.75 573.08,303.75 576.27,303.75 579.47,303.75 582.67,303.75 585.86,346.93 589.06,303.75 592.26,303.75 595.45,303.75 598.65,303.75 601.85,303.75 605.04,303.75 608.24,303.75 611.44,346.93 614.63,303.75 617.83,303.75 621.03,303.75 624.22,303.75 627.42,303.75 630.62,303.75 633.82,303.75 637.01,346.93 640.21,303.75 643.41,303.75 646.60,303.75 649.80,303.75 653.00,303.75 656.19,303.75 659.39,303.75 662.59,346.93 665.78,303.75 668.98,303.75 672.18,303.75 675.37,303.75 678.57,303.75 681.77,303.75 684.96,303.75 688.16,346.93 691.36,303.75 694.55,303.75 697.75,303.75 700.95,303.75 704.14,303.75 707.34,303.75 710.54,303.75 713.73,346.93 716.93,303.75 720.13,303.75 723.33,303.75 726.52,303.75 729.72,303.75 732.92,303.75 736.11,303.75 739.31,346.93 742.51,303.75 745.70,303.75 748.90,303.75 752.10,303.75 755.29,303.75 758.49,303.75 761.69,303.75 764.88,346.93 768.08,303.75 771.28,303.75 774.47,303.75 777.67,303.75 780.87,303.75 784.06,303.75 787.26,303.75 790.46,346.93 793.65,303.75 796.85,303.75 800.05,303.75 803.24,303.75 806.44,303.75 809.64,303.75 812.84,303.75 816.03,346.93 819.23,303.75 822.43,303.75 825.62,303.75 828.82,303.75 832.02,303.75 835.21,303.75 838.41,303.75 841.61,346.93 844.80,303.75 848.00,303.75" />
<polyline fill="none" stroke="#3b82f6" stroke-width="3" points="52.00,110.99 55.20,110.99 58.39,110.99 61.59,110.99 64.79,110.99 67.98,110.99 71.18,110.99 74.38,110.99 77.57,110.99 80.77,110.99 83.97,110.99 87.16,110.99 90.36,110.99 93.56,110.99 96.76,220.74 99.95,175.24 103.15,175.24 106.35,175.24 109.54,175.24 112.74,175.24 115.94,175.24 119.13,175.24 122.33,175.24 125.53,175.24 128.72,175.24 131.92,175.24 135.12,175.24 138.31,175.24 141.51,175.24 144.71,285.00 147.90,239.49 151.10,239.49 154.30,239.49 157.49,239.49 160.69,239.49 163.89,239.49 167.08,239.49 170.28,239.49 173.48,239.49 176.67,239.49 179.87,239.49 183.07,239.49 186.27,239.49 189.46,239.49 192.66,346.93 195.86,303.75 199.05,303.75 202.25,303.75 205.45,303.75 208.64,303.75 211.84,303.75 215.04,303.75 218.23,303.75 221.43,303.75 224.63,303.75 227.82,303.75 231.02,303.75 234.22,303.75 237.41,303.75 240.61,346.93 243.81,303.75 247.00,303.75 250.20,303.75 253.40,303.75 256.59,303.75 259.79,303.75 262.99,303.75 266.18,303.75 269.38,303.75 272.58,303.75 275.78,303.75 278.97,303.75 282.17,303.75 285.37,303.75 288.56,346.93 291.76,303.75 294.96,303.75 298.15,303.75 301.35,303.75 304.55,303.75 307.74,303.75 310.94,303.75 314.14,303.75 317.33,303.75 320.53,303.75 323.73,303.75 326.92,303.75 330.12,303.75 333.32,303.75 336.51,346.93 339.71,303.75 342.91,303.75 346.10,303.75 349.30,303.75 352.50,303.75 355.69,303.75 358.89,303.75 362.09,303.75 365.29,303.75 368.48,303.75 371.68,303.75 374.88,303.75 378.07,303.75 381.27,303.75 384.47,346.93 387.66,303.75 390.86,303.75 394.06,303.75 397.25,303.75 400.45,303.75 403.65,303.75 406.84,303.75 410.04,303.75 413.24,303.75 416.43,303.75 419.63,303.75 422.83,303.75 426.02,303.75 429.22,303.75 432.42,346.93 435.61,303.75 438.81,303.75 442.01,303.75 445.20,303.75 448.40,303.75 451.60,303.75 454.80,303.75 457.99,303.75 461.19,303.75 464.39,303.75 467.58,303.75 470.78,303.75 473.98,303.75 477.17,303.75 480.37,346.93 483.57,303.75 486.76,303.75 489.96,303.75 493.16,303.75 496.35,303.75 499.55,303.75 502.75,303.75 505.94,303.75 509.14,303.75 512.34,303.75 515.53,303.75 518.73,303.75 521.93,303.75 525.12,303.75 528.32,346.93 531.52,303.75 534.71,303.75 537.91,303.75 541.11,303.75 544.31,303.75 547.50,303.75 550.70,303.75 553.90,303.75 557.09,303.75 560.29,303.75 563.49,303.75 566.68,303.75 569.88,303.75 573.08,303.75 576.27,346.93 579.47,303.75 582.67,303.75 585.86,303.75 589.06,303.75 592.26,303.75 595.45,303.75 598.65,303.75 601.85,303.75 605.04,303.75 608.24,303.75 611.44,303.75 614.63,303.75 617.83,303.75 621.03,303.75 624.22,346.93 627.42,303.75 630.62,303.75 633.82,303.75 637.01,303.75 640.21,303.75 643.41,303.75 646.60,303.75 649.80,303.75 653.00,303.75 656.19,303.75 659.39,303.75 662.59,303.75 665.78,303.75 668.98,303.75 672.18,346.93 675.37,303.75 678.57,303.75 681.77,303.75 684.96,303.75 688.16,303.75 691.36,303.75 694.55,303.75 697.75,303.75 700.95,303.75 704.14,303.75 707.34,303.75 710.54,303.75 713.73,303.75 716.93,303.75 720.13,346.93 723.33,303.75 726.52,303.75 729.72,303.75 732.92,303.75 736.11,303.75 739.31,303.75 742.51,303.75 745.70,303.75 748.90,303.75 752.10,303.75 755.29,303.75 758.49,303.75 761.69,303.75 764.88,303.75 768.08,346.93 771.28,303.75 774.47,303.75 777.67,303.75 780.87,303.75 784.06,303.75 787.26,303.75 790.46,303.75 793.65,303.75 796.85,303.75 800.05,303.75 803.24,303.75 806.44,303.75 809.64,303.75 812.84,303.75 816.03,346.93 819.23,303.75 822.43,303.75 825.62,303.75 828.82,303.75 832.02,303.75 835.21,303.75 838.41,303.75 841.61,303.75 844.80,303.75 848.00,303.75" />
<polyline fill="none" stroke="#22c55e" stroke-width="3" points="52.00,52.00 55.20,52.00 58.39,52.00 61.59,52.00 64.79,52.00 67.98,52.00 71.18,52.00 74.38,52.00 77.57,52.00 80.77,52.00 83.97,52.00 87.16,52.00 90.36,52.00 93.56,52.00 96.76,52.00 99.95,52.00 103.15,52.00 106.35,52.00 109.54,52.00 112.74,52.00 115.94,52.00 119.13,52.00 122.33,52.00 125.53,52.00 128.72,52.00 131.92,52.00 135.12,52.00 138.31,52.00 141.51,52.00 144.71,52.00 147.90,52.00 151.10,52.00 154.30,52.00 157.49,52.00 160.69,52.00 163.89,52.00 167.08,52.00 170.28,52.00 173.48,52.00 176.67,52.00 179.87,52.00 183.07,52.00 186.27,52.00 189.46,52.00 192.66,52.00 195.86,52.00 199.05,52.00 202.25,52.00 205.45,52.00 208.64,52.00 211.84,52.00 215.04,52.00 218.23,52.00 221.43,52.00 224.63,52.00 227.82,52.00 231.02,52.00 234.22,52.00 237.41,52.00 240.61,52.00 243.81,52.00 247.00,52.00 250.20,52.00 253.40,52.00 256.59,52.00 259.79,52.00 262.99,52.00 266.18,52.00 269.38,52.00 272.58,52.00 275.78,52.00 278.97,52.00 282.17,52.00 285.37,52.00 288.56,52.00 291.76,52.00 294.96,52.00 298.15,52.00 301.35,52.00 304.55,52.00 307.74,52.00 310.94,52.00 314.14,52.00 317.33,52.00 320.53,52.00 323.73,52.00 326.92,52.00 330.12,52.00 333.32,52.00 336.51,52.00 339.71,52.00 342.91,52.00 346.10,52.00 349.30,52.00 352.50,52.00 355.69,52.00 358.89,52.00 362.09,52.00 365.29,52.00 368.48,116.25 371.68,116.25 374.88,116.25 378.07,116.25 381.27,116.25 384.47,116.25 387.66,116.25 390.86,116.25 394.06,116.25 397.25,116.25 400.45,116.25 403.65,116.25 406.84,116.25 410.04,116.25 413.24,116.25 416.43,116.25 419.63,116.25 422.83,116.25 426.02,116.25 429.22,116.25 432.42,116.25 435.61,116.25 438.81,116.25 442.01,116.25 445.20,116.25 448.40,116.25 451.60,116.25 454.80,116.25 457.99,116.25 461.19,116.25 464.39,116.25 467.58,116.25 470.78,116.25 473.98,116.25 477.17,116.25 480.37,116.25 483.57,116.25 486.76,116.25 489.96,116.25 493.16,116.25 496.35,116.25 499.55,116.25 502.75,116.25 505.94,116.25 509.14,116.25 512.34,116.25 515.53,116.25 518.73,116.25 521.93,116.25 525.12,116.25 528.32,116.25 531.52,116.25 534.71,116.25 537.91,116.25 541.11,116.25 544.31,116.25 547.50,116.25 550.70,116.25 553.90,116.25 557.09,116.25 560.29,116.25 563.49,116.25 566.68,116.25 569.88,116.25 573.08,116.25 576.27,116.25 579.47,116.25 582.67,116.25 585.86,116.25 589.06,116.25 592.26,116.25 595.45,116.25 598.65,116.25 601.85,116.25 605.04,116.25 608.24,116.25 611.44,116.25 614.63,116.25 617.83,116.25 621.03,116.25 624.22,116.25 627.42,116.25 630.62,116.25 633.82,116.25 637.01,116.25 640.21,116.25 643.41,116.25 646.60,116.25 649.80,116.25 653.00,116.25 656.19,116.25 659.39,116.25 662.59,116.25 665.78,116.25 668.98,116.25 672.18,116.25 675.37,116.25 678.57,116.25 681.77,116.25 684.96,116.25 688.16,116.25 691.36,116.25 694.55,116.25 697.75,116.25 700.95,116.25 704.14,116.25 707.34,116.25 710.54,116.25 713.73,116.25 716.93,116.25 720.13,116.25 723.33,116.25 726.52,116.25 729.72,116.25 732.92,116.25 736.11,116.25 739.31,116.25 742.51,116.25 745.70,116.25 748.90,116.25 752.10,127.31 755.29,135.21 758.49,135.21 761.69,135.21 764.88,135.21 768.08,135.21 771.28,135.21 774.47,135.21 777.67,135.21 780.87,135.21 784.06,135.21 787.26,135.21 790.46,135.21 793.65,135.21 796.85,135.21 800.05,135.21 803.24,135.21 806.44,135.21 809.64,135.21 812.84,135.21 816.03,135.21 819.23,135.21 822.43,135.21 825.62,135.21 828.82,135.21 832.02,135.21 835.21,135.21 838.41,135.21 841.61,135.21 844.80,135.21 848.00,135.21" />
<text x="52" y="404" fill="#ef4444" font-size="14">naive</text>
<text x="222" y="404" fill="#f59e0b" font-size="14">baseline</text>
<text x="392" y="404" fill="#3b82f6" font-size="14">adaptive</text>
<text x="562" y="404" fill="#22c55e" font-size="14">comptext_v7</text>
</svg>