<svg xmlns="http://www.w3.org/2000/svg" width="900" height="420" viewBox="0 0 900 420">
<rect width="100%" height="100%" fill="#0f172a" />
<text x="52" y="32" fill="#e2e8f0" font-size="22" font-family="sans-serif">Constraint survival curves</text>
<line x1="52" y1="368" x2="848" y2="368" stroke="#94a3b8" />
<line x1="52" y1="52" x2="52" y2="368" stroke="#94a3b8" />
<polyline fill="none" stroke="#ef4444" stroke-width="3" points="52.00,260.79 60.04,368.00 68.08,368.00 76.12,368.00 84.16,368.00 92.20,368.00 100.24,368.00 108.28,368.00 116.32,368.00 124.36,368.00 132.40,368.00 140.44,368.00 148.48,368.00 156.53,368.00 164.57,368.00 172.61,368.00 180.65,368.00 188.69,368.00 196.73,368.00 204.77,368.00 212.81,368.00 220.85,368.00 228.89,368.00 236.93,368.00 244.97,368.00 253.01,368.00 261.05,368.00 269.09,368.00 277.13,368.00 285.17,368.00 293.21,368.00 301.25,368.00 309.29,368.00 317.33,368.00 325.37,368.00 333.41,368.00 341.45,368.00 349.49,368.00 357.54,368.00 365.58,368.00 373.62,368.00 381.66,368.00 389.70,368.00 397.74,368.00 405.78,368.00 413.82,368.00 421.86,368.00 429.90,368.00 437.94,368.00 445.98,368.00 454.02,368.00 462.06,368.00 470.10,368.00 478.14,368.00 486.18,368.00 494.22,368.00 502.26,368.00 510.30,368.00 518.34,368.00 526.38,368.00 534.42,368.00 542.46,368.00 550.51,368.00 558.55,368.00 566.59,368.00 574.63,368.00 582.67,368.00 590.71,368.00 598.75,368.00 606.79,368.00 614.83,368.00 622.87,368.00 630.91,368.00 638.95,368.00 646.99,368.00 655.03,368.00 663.07,368.00 671.11,368.00 679.15,368.00 687.19,368.00 695.23,368.00 703.27,368.00 711.31,368.00 719.35,368.00 727.39,368.00 735.43,368.00 743.47,368.00 751.52,368.00 759.56,368.00 767.60,368.00 775.64,368.00 783.68,368.00 791.72,368.00 799.76,368.00 807.80,368.00 815.84,368.00 823.88,368.00 831.92,368.00 839.96,368.00 848.00,368.00" />
<polyline fill="none" stroke="#f59e0b" stroke-width="3" points="52.00,91.50 60.04,91.50 68.08,91.50 76.12,91.50 84.16,91.50 92.20,153.57 100.24,153.57 108.28,153.57 116.32,153.57 124.36,153.57 132.40,153.57 140.44,260.79 148.48,260.79 156.53,260.79 164.57,260.79 172.61,260.79 180.65,260.79 188.69,260.79 196.73,260.79 204.77,260.79 212.81,260.79 220.85,260.79 228.89,260.79 236.93,260.79 244.97,260.79 253.01,260.79 261.05,260.79 269.09,260.79 277.13,260.79 285.17,260.79 293.21,260.79 301.25,260.79 309.29,260.79 317.33,260.79 325.37,260.79 333.41,260.79 341.45,260.79 349.49,260.79 357.54,260.79 365.58,260.79 373.62,260.79 381.66,260.79 389.70,260.79 397.74,260.79 405.78,260.79 413.82,260.79 421.86,260.79 429.90,260.79 437.94,260.79 445.98,260.79 454.02,260.79 462.06,260.79 470.10,260.79 478.14,260.79 486.18,260.79 494.22,260.79 502.26,260.79 510.30,260.79 518.34,260.79 526.38,260.79 534.42,260.79 542.46,260.79 550.51,260.79 558.55,260.79 566.59,260.79 574.63,260.79 582.67,260.79 590.71,260.79 598.75,260.79 606.79,260.79 614.83,260.79 622.87,260.79 630.91,260.79 638.95,260.79 646.99,260.79 655.03,260.79 663.07,260.79 671.11,260.79 679.15,260.79 687.19,260.79 695.23,260.79 703.27,260.79 711.31,260.79 719.35,260.79 727.39,260.79 735.43,260.79 743.47,260.79 751.52,260.79 759.56,260.79 767.60,260.79 775.64,260.79 783.68,260.79 791.72,260.79 799.76,260.79 807.80,260.79 815.84,260.79 823.88,260.79 831.92,260.79 839.96,260.79 848.00,260.79" />
<polyline fill="none" stroke="#3b82f6" stroke-width="3" points="52.00,74.57 60.04,74.57 68.08,74.57 76.12,74.57 84.16,74.57 92.20,74.57 100.24,74.57 108.28,74.57 116.32,74.57 124.36,74.57 132.40,91.50 140.44,91.50 148.48,91.50 156.53,91.50 164.57,91.50 172.61,91.50 180.65,91.50 188.69,91.50 196.73,91.50 204.77,91.50 212.81,91.50 220.85,153.57 228.89,153.57 236.93,153.57 244.97,153.57 253.01,153.57 261.05,153.57 269.09,153.57 277.13,153.57 285.17,153.57 293.21,153.57 301.25,153.57 309.29,260.79 317.33,260.79 325.37,260.79 333.41,260.79 341.45,260.79 349.49,260.79 357.54,260.79 365.58,260.79 373.62,260.79 381.66,260.79 389.70,260.79 397.74,260.79 405.78,260.79 413.82,260.79 421.86,260.79 429.90,260.79 437.94,260.79 445.98,260.79 454.02,260.79 462.06,260.79 470.10,260.79 478.14,260.79 486.18,260.79 494.22,260.79 502.26,260.79 510.30,260.79 518.34,260.79 526.38,260.79 534.42,260.79 542.46,260.79 550.51,260.79 558.55,260.79 566.59,260.79 574.63,260.79 582.67,260.79 590.71,260.79 598.75,260.79 606.79,260.79 614.83,260.79 622.87,260.79 630.91,260.79 638.95,260.79 646.99,260.79 655.03,260.79 663.07,260.79 671.11,260.79 679.15,260.79 687.19,260.79 695.23,260.79 703.27,260.79 711.31,260.79 719.35,260.79 727.39,260.79 735.43,260.79 743.47,260.79 751.52,260.79 759.56,260.79 767.60,260.79 775.64,260.79 783.68,260.79 791.72,260.79 799.76,260.79 807.80,260.79 815.84,260.79 823.88,260.79 831.92,260.79 839.96,260.79 848.00,260.79" />
<polyline fill="none" stroke="#22c55e" stroke-width="3" points="52.00,52.00 60.04,52.00 68.08,52.00 76.12,52.00 84.16,52.00 92.20,52.00 100.24,52.00 108.28,52.00 116.32,52.00 124.36,52.00 132.40,52.00 140.44,52.00 148.48,52.00 156.53,52.00 164.57,52.00 172.61,52.00 180.65,52.00 188.69,52.00 196.73,52.00 204.77,52.00 212.81,52.00 220.85,52.00 228.89,52.00 236.93,52.00 244.97,52.00 253.01,52.00 261.05,52.00 269.09,52.00 277.13,52.00 285.17,52.00 293.21,52.00 301.25,52.00 309.29,52.00 317.33,52.00 325.37,52.00 333.41,52.00 341.45,52.00 349.49,52.00 357.54,52.00 365.58,52.00 373.62,52.00 381.66,52.00 389.70,52.00 397.74,52.00 405.78,52.00 413.82,52.00 421.86,52.00 429.90,52.00 437.94,52.00 445.98,52.00 454.02,52.00 462.06,52.00 470.10,52.00 478.14,52.00 486.18,52.00 494.22,52.00 502.26,52.00 510.30,52.00 518.34,52.00 526.38,52.00 534.42,52.00 542.46,52.00 550.51,52.00 558.55,52.00 566.59,52.00 574.63,52.00 582.67,52.00 590.71,52.00 598.75,52.00 606.79,52.00 614.83,52.00 622.87,52.00 630.91,52.00 638.95,52.00 646.99,114.07 655.03,131.00 663.07,136.64 671.11,142.29 679.15,147.93 687.19,153.57 695.23,153.57 703.27,153.57 711.31,153.57 719.35,153.57 727.39,153.57 735.43,153.57 743.47,153.57 751.52,153.57 759.56,153.57 767.60,153.57 775.64,153.57 783.68,153.57 791.72,153.57 799.76,153.57 807.80,153.57 815.84,153.57 823.88,153.57 831.92,153.57 839.96,153.57 848.00,153.57" />
<text x="52" y="404" fill="#ef4444" font-size="14">naive</text>
<text x="222" y="404" fill="#f59e0b" font-size="14">baseline</text>
<text x="392" y="404" fill="#3b82f6" font-size="14">adaptive</text>
<text x="562" y="404" fill="#22c55e" font-size="14">comptext_v7</text>
</svg>