<svg xmlns="http://www.w3.org/2000/svg" width="820" height="208" viewBox="0 0 820 208">
<rect width="100%" height="100%" fill="#0f172a" />
<text x="20" y="28" fill="#e2e8f0" font-size="22" font-family="sans-serif">Contradiction accumulation heatmap</text>
<text x="280" y="42" fill="#e2e8f0" font-size="13">naive</text>
<text x="412" y="42" fill="#e2e8f0" font-size="13">baseline</text>
<text x="544" y="42" fill="#e2e8f0" font-size="13">adaptive</text>
<text x="676" y="42" fill="#e2e8f0" font-size="13">comptext_v7</text>
<text x="20" y="84" fill="#e2e8f0" font-size="12">contradiction_accumulation</text>
<rect x="280" y="58" width="128" height="38" fill="rgb(240,80,90)" />
<text x="314" y="83" fill="#0f172a" font-size="13">0.000</text>
<rect x="412" y="58" width="128" height="38" fill="rgb(240,80,90)" />
<text x="446" y="83" fill="#0f172a" font-size="13">0.000</text>
<rect x="544" y="58" width="128" height="38" fill="rgb(240,80,90)" />
<text x="578" y="83" fill="#0f172a" font-size="13">0.000</text>
<rect x="676" y="58" width="128" height="38" fill="rgb(230,89,90)" />
<text x="710" y="83" fill="#0f172a" font-size="13">0.067</text>
<text x="20" y="126" fill="#e2e8f0" font-size="12">contradiction_growth_rate</text>
<rect x="280" y="100" width="128" height="38" fill="rgb(240,80,90)" />
<text x="314" y="125" fill="#0f172a" font-size="13">0.000</text>
<rect x="412" y="100" width="128" height="38" fill="rgb(240,80,90)" />
<text x="446" y="125" fill="#0f172a" font-size="13">0.000</text>
<rect x="544" y="100" width="128" height="38" fill="rgb(240,80,90)" />
<text x="578" y="125" fill="#0f172a" font-size="13">0.000</text>
<rect x="676" y="100" width="128" height="38" fill="rgb(239,80,90)" />
<text x="710" y="125" fill="#0f172a" font-size="13">0.002</text>
<text x="20" y="168" fill="#e2e8f0" font-size="12">embedding_divergence</text>
<rect x="280" y="142" width="128" height="38" fill="rgb(108,221,90)" />
<text x="314" y="167" fill="#0f172a" font-size="13">0.943</text>
<rect x="412" y="142" width="128" height="38" fill="rgb(143,183,90)" />
<text x="446" y="167" fill="#0f172a" font-size="13">0.692</text>
<rect x="544" y="142" width="128" height="38" fill="rgb(150,175,90)" />
<text x="578" y="167" fill="#0f172a" font-size="13">0.637</text>
<rect x="676" y="142" width="128" height="38" fill="rgb(176,147,90)" />
<text x="710" y="167" fill="#0f172a" font-size="13">0.452</text>
</svg>