<svg xmlns="http://www.w3.org/2000/svg" width="900" height="420" viewBox="0 0 900 420">
<rect width="100%" height="100%" fill="#0f172a" />
<text x="52" y="32" fill="#e2e8f0" font-size="22" font-family="sans-serif">Contradiction accumulation</text>
<line x1="52" y1="368" x2="848" y2="368" stroke="#94a3b8" />
<line x1="52" y1="52" x2="52" y2="368" stroke="#94a3b8" />
<polyline fill="none" stroke="#3b82f6" stroke-width="3" points="52.00,368.00 68.24,368.00 84.49,368.00 100.73,368.00 116.98,368.00 133.22,368.00 149.47,368.00 165.71,368.00 181.96,368.00 198.20,368.00 214.45,368.00 230.69,368.00 246.94,368.00 263.18,368.00 279.43,368.00 295.67,368.00 311.92,283.98 328.16,368.00 344.41,368.00 360.65,368.00 376.90,368.00 393.14,368.00 409.39,368.00 425.63,368.00 441.88,368.00 458.12,368.00 474.37,368.00 490.61,368.00 506.86,368.00 523.10,368.00 539.35,368.00 555.59,368.00 571.84,368.00 588.08,283.98 604.33,368.00 620.57,368.00 636.82,368.00 653.06,368.00 669.31,368.00 685.55,368.00 701.80,368.00 718.04,368.00 734.29,368.00 750.53,368.00 766.78,368.00 783.02,368.00 799.27,368.00 815.51,368.00 831.76,368.00 848.00,368.00" />
<polyline fill="none" stroke="#f59e0b" stroke-width="3" points="52.00,368.00 68.24,368.00 84.49,368.00 100.73,368.00 116.98,368.00 133.22,368.00 149.47,368.00 165.71,368.00 181.96,300.29 198.20,368.00 214.45,368.00 230.69,368.00 246.94,368.00 263.18,368.00 279.43,368.00 295.67,368.00 311.92,368.00 328.16,317.84 344.41,368.00 360.65,368.00 376.90,368.00 393.14,368.00 409.39,368.00 425.63,368.00 441.88,368.00 458.12,368.00 474.37,342.92 490.61,368.00 506.86,368.00 523.10,368.00 539.35,368.00 555.59,368.00 571.84,368.00 588.08,368.00 604.33,368.00 620.57,342.92 636.82,368.00 653.06,368.00 669.31,368.00 685.55,368.00 701.80,368.00 718.04,368.00 734.29,368.00 750.53,368.00 766.78,342.92 783.02,368.00 799.27,368.00 815.51,368.00 831.76,368.00 848.00,368.00" />
<polyline fill="none" stroke="#22c55e" stroke-width="3" points="52.00,368.00 68.24,368.00 84.49,368.00 100.73,368.00 116.98,368.00 133.22,368.00 149.47,368.00 165.71,368.00 181.96,368.00 198.20,368.00 214.45,368.00 230.69,368.00 246.94,368.00 263.18,368.00 279.43,368.00 295.67,368.00 311.92,368.00 328.16,368.00 344.41,368.00 360.65,368.00 376.90,368.00 393.14,368.00 409.39,368.00 425.63,368.00 441.88,368.00 458.12,368.00 474.37,368.00 490.61,368.00 506.86,368.00 523.10,368.00 539.35,368.00 555.59,368.00 571.84,368.00 588.08,368.00 604.33,368.00 620.57,368.00 636.82,368.00 653.06,368.00 669.31,368.00 685.55,368.00 701.80,368.00 718.04,368.00 734.29,368.00 750.53,368.00 766.78,368.00 783.02,368.00 799.27,368.00 815.51,368.00 831.76,368.00 848.00,368.00" />
<polyline fill="none" stroke="#ef4444" stroke-width="3" points="52.00,368.00 68.24,368.00 84.49,368.00 100.73,368.00 116.98,342.92 133.22,368.00 149.47,368.00 165.71,368.00 181.96,368.00 198.20,368.00 214.45,368.00 230.69,368.00 246.94,368.00 263.18,368.00 279.43,368.00 295.67,368.00 311.92,368.00 328.16,368.00 344.41,368.00 360.65,368.00 376.90,368.00 393.14,368.00 409.39,368.00 425.63,368.00 441.88,368.00 458.12,368.00 474.37,368.00 490.61,368.00 506.86,368.00 523.10,368.00 539.35,368.00 555.59,368.00 571.84,368.00 588.08,368.00 604.33,368.00 620.57,368.00 636.82,368.00 653.06,368.00 669.31,368.00 685.55,368.00 701.80,368.00 718.04,368.00 734.29,368.00 750.53,368.00 766.78,368.00 783.02,368.00 799.27,368.00 815.51,368.00 831.76,368.00 848.00,368.00" />
<text x="52" y="404" fill="#3b82f6" font-size="14">adaptive</text>
<text x="222" y="404" fill="#f59e0b" font-size="14">baseline</text>
<text x="392" y="404" fill="#22c55e" font-size="14">comptext_v7</text>
<text x="562" y="404" fill="#ef4444" font-size="14">naive</text>
</svg>