<svg xmlns="http://www.w3.org/2000/svg" width="900" height="420" viewBox="0 0 900 420">
<rect width="100%" height="100%" fill="#0f172a" />
<text x="52" y="32" fill="#e2e8f0" font-size="22" font-family="sans-serif">Drift acceleration graph</text>
<line x1="52" y1="368" x2="848" y2="368" stroke="#94a3b8" />
<line x1="52" y1="52" x2="52" y2="368" stroke="#94a3b8" />
<polyline fill="none" stroke="#ef4444" stroke-width="3" points="52.00,147.59 60.04,131.51 68.08,121.62 76.12,100.90 84.16,88.13 92.20,77.28 100.24,77.28 108.28,64.93 116.32,59.67 124.36,59.67 132.40,59.67 140.44,64.93 148.48,59.67 156.53,59.67 164.57,59.67 172.61,64.93 180.65,59.67 188.69,59.67 196.73,59.67 204.77,64.93 212.81,59.67 220.85,59.67 228.89,59.67 236.93,64.93 244.97,59.67 253.01,59.67 261.05,59.67 269.09,64.93 277.13,59.67 285.17,59.67 293.21,59.67 301.25,64.93 309.29,59.67 317.33,59.67 325.37,59.67 333.41,64.93 341.45,59.67 349.49,59.67 357.54,59.67 365.58,64.93 373.62,59.67 381.66,59.67 389.70,59.67 397.74,64.93 405.78,59.67 413.82,59.67 421.86,59.67 429.90,64.93 437.94,59.67 445.98,59.67 454.02,59.67 462.06,64.93 470.10,59.67 478.14,59.67 486.18,59.67 494.22,64.93 502.26,59.67 510.30,59.67 518.34,59.67 526.38,64.93 534.42,59.67 542.46,59.67 550.51,59.67 558.55,64.93 566.59,59.67 574.63,59.67 582.67,59.67 590.71,64.93 598.75,59.67 606.79,59.67 614.83,59.67 622.87,64.93 630.91,59.67 638.95,59.67 646.99,59.67 655.03,64.93 663.07,59.67 671.11,59.67 679.15,59.67 687.19,64.93 695.23,59.67 703.27,59.67 711.31,59.67 719.35,64.93 727.39,59.67 735.43,59.67 743.47,59.67 751.52,64.93 759.56,59.67 767.60,59.67 775.64,59.67 783.68,64.93 791.72,59.67 799.76,59.67 807.80,59.67 815.84,64.93 823.88,59.67 831.92,59.67 839.96,59.67 848.00,64.93" />
<polyline fill="none" stroke="#f59e0b" stroke-width="3" points="52.00,240.06 60.04,240.06 68.08,240.06 76.12,240.06 84.16,240.06 92.20,229.07 100.24,223.71 108.28,199.05 116.32,206.46 124.36,202.01 132.40,202.01 140.44,183.37 148.48,183.37 156.53,169.21 164.57,169.21 172.61,147.75 180.65,152.70 188.69,151.00 196.73,151.00 204.77,148.16 212.81,145.56 220.85,145.56 228.89,145.56 236.93,127.19 244.97,130.26 253.01,130.26 261.05,130.26 269.09,130.26 277.13,130.26 285.17,130.26 293.21,130.26 301.25,127.19 309.29,130.26 317.33,130.26 325.37,130.26 333.41,130.26 341.45,130.26 349.49,130.26 357.54,130.26 365.58,127.19 373.62,130.26 381.66,130.26 389.70,130.26 397.74,130.26 405.78,130.26 413.82,130.26 421.86,130.26 429.90,127.19 437.94,130.26 445.98,130.26 454.02,130.26 462.06,130.26 470.10,130.26 478.14,130.26 486.18,130.26 494.22,127.19 502.26,130.26 510.30,130.26 518.34,130.26 526.38,130.26 534.42,130.26 542.46,130.26 550.51,130.26 558.55,127.19 566.59,130.26 574.63,130.26 582.67,130.26 590.71,130.26 598.75,130.26 606.79,130.26 614.83,130.26 622.87,127.19 630.91,130.26 638.95,130.26 646.99,130.26 655.03,130.26 663.07,130.26 671.11,130.26 679.15,130.26 687.19,127.19 695.23,130.26 703.27,130.26 711.31,130.26 719.35,130.26 727.39,130.26 735.43,130.26 743.47,130.26 751.52,127.19 759.56,130.26 767.60,130.26 775.64,130.26 783.68,130.26 791.72,130.26 799.76,130.26 807.80,130.26 815.84,127.19 823.88,130.26 831.92,130.26 839.96,130.26 848.00,130.26" />
<polyline fill="none" stroke="#3b82f6" stroke-width="3" points="52.00,285.52 60.04,285.52 68.08,285.52 76.12,285.52 84.16,285.52 92.20,285.52 100.24,285.52 108.28,285.52 116.32,285.52 124.36,285.52 132.40,282.98 140.44,282.98 148.48,281.60 156.53,278.30 164.57,263.17 172.61,276.61 180.65,276.61 188.69,267.89 196.73,267.89 204.77,267.89 212.81,267.89 220.85,258.30 228.89,258.30 236.93,258.30 244.97,258.30 253.01,253.25 261.05,253.25 269.09,240.04 277.13,240.04 285.17,227.01 293.21,237.94 301.25,236.63 309.29,220.54 317.33,220.54 325.37,220.54 333.41,213.52 341.45,213.52 349.49,213.52 357.54,205.92 365.58,205.92 373.62,205.92 381.66,191.76 389.70,191.76 397.74,191.76 405.78,181.28 413.82,190.07 421.86,190.07 429.90,189.50 437.94,189.50 445.98,189.50 454.02,189.50 462.06,182.48 470.10,182.48 478.14,182.48 486.18,182.48 494.22,166.53 502.26,166.53 510.30,166.53 518.34,166.53 526.38,160.84 534.42,166.53 542.46,166.53 550.51,166.53 558.55,166.53 566.59,163.93 574.63,163.93 582.67,163.93 590.71,161.29 598.75,161.29 606.79,145.78 614.83,145.78 622.87,145.78 630.91,145.78 638.95,145.78 646.99,141.59 655.03,145.78 663.07,145.78 671.11,145.78 679.15,145.78 687.19,145.78 695.23,145.78 703.27,145.78 711.31,145.78 719.35,145.78 727.39,145.78 735.43,145.78 743.47,145.78 751.52,145.78 759.56,145.78 767.60,141.59 775.64,145.78 783.68,145.78 791.72,145.78 799.76,145.78 807.80,145.78 815.84,145.78 823.88,145.78 831.92,145.78 839.96,145.78 848.00,145.78" />
<polyline fill="none" stroke="#22c55e" stroke-width="3" points="52.00,368.00 60.04,368.00 68.08,368.00 76.12,368.00 84.16,368.00 92.20,368.00 100.24,368.00 108.28,368.00 116.32,368.00 124.36,368.00 132.40,368.00 140.44,368.00 148.48,368.00 156.53,368.00 164.57,368.00 172.61,368.00 180.65,368.00 188.69,368.00 196.73,368.00 204.77,368.00 212.81,368.00 220.85,368.00 228.89,368.00 236.93,368.00 244.97,368.00 253.01,368.00 261.05,368.00 269.09,368.00 277.13,368.00 285.17,368.00 293.21,368.00 301.25,368.00 309.29,368.00 317.33,368.00 325.37,348.12 333.41,345.86 341.45,345.86 349.49,345.86 357.54,345.86 365.58,345.86 373.62,345.86 381.66,345.86 389.70,345.86 397.74,345.86 405.78,345.86 413.82,345.86 421.86,345.86 429.90,345.86 437.94,345.86 445.98,345.86 454.02,345.86 462.06,345.86 470.10,345.86 478.14,345.86 486.18,334.32 494.22,334.32 502.26,334.32 510.30,334.32 518.34,334.32 526.38,334.32 534.42,334.32 542.46,334.32 550.51,334.32 558.55,334.32 566.59,334.32 574.63,334.32 582.67,334.32 590.71,334.32 598.75,334.32 606.79,334.32 614.83,334.32 622.87,334.32 630.91,334.32 638.95,334.32 646.99,321.43 655.03,318.89 663.07,318.04 671.11,317.20 679.15,316.35 687.19,315.51 695.23,315.51 703.27,315.51 711.31,315.51 719.35,315.51 727.39,315.51 735.43,315.51 743.47,315.51 751.52,315.51 759.56,315.51 767.60,292.72 775.64,272.03 783.68,272.03 791.72,272.03 799.76,272.03 807.80,272.03 815.84,272.03 823.88,272.03 831.92,272.03 839.96,272.03 848.00,267.13" />
<text x="52" y="404" fill="#ef4444" font-size="14">naive</text>
<text x="222" y="404" fill="#f59e0b" font-size="14">baseline</text>
<text x="392" y="404" fill="#3b82f6" font-size="14">adaptive</text>
<text x="562" y="404" fill="#22c55e" font-size="14">comptext_v7</text>
</svg>