<svg xmlns="http://www.w3.org/2000/svg" width="900" height="420" viewBox="0 0 900 420">
<rect width="100%" height="100%" fill="#0f172a" />
<text x="52" y="32" fill="#e2e8f0" font-size="22" font-family="sans-serif">Evaluator agreement divergence</text>
<line x1="52" y1="368" x2="848" y2="368" stroke="#94a3b8" />
<line x1="52" y1="52" x2="52" y2="368" stroke="#94a3b8" />
<polyline fill="none" stroke="#ef4444" stroke-width="3" points="52.00,129.94 55.20,113.09 58.39,112.43 61.59,127.58 64.79,55.16 67.98,54.47 71.18,54.47 74.38,93.47 77.57,52.00 80.77,52.00 83.97,52.00 87.16,87.55 90.36,52.00 93.56,52.00 96.76,52.00 99.95,84.59 103.15,52.00 106.35,52.00 109.54,52.00 112.74,82.81 115.94,52.00 119.13,52.00 122.33,52.00 125.53,81.63 128.72,52.00 131.92,52.00 135.12,52.00 138.31,80.78 141.51,52.00 144.71,52.00 147.90,52.00 151.10,80.14 154.30,52.00 157.49,52.00 160.69,52.00 163.89,79.65 167.08,52.00 170.28,52.00 173.48,52.00 176.67,79.25 179.87,52.00 183.07,52.00 186.27,52.00 189.46,78.93 192.66,52.00 195.86,52.00 199.05,52.00 202.25,78.66 205.45,52.00 208.64,52.00 211.84,52.00 215.04,78.43 218.23,52.00 221.43,52.00 224.63,52.00 227.82,78.24 231.02,52.00 234.22,52.00 237.41,52.00 240.61,78.07 243.81,52.00 247.00,52.00 250.20,52.00 253.40,77.92 256.59,52.00 259.79,52.00 262.99,52.00 266.18,77.79 269.38,52.00 272.58,52.00 275.78,52.00 278.97,77.68 282.17,52.00 285.37,52.00 288.56,52.00 291.76,77.57 294.96,52.00 298.15,52.00 301.35,52.00 304.55,77.48 307.74,52.00 310.94,52.00 314.14,52.00 317.33,77.39 320.53,52.00 323.73,52.00 326.92,52.00 330.12,77.32 333.32,52.00 336.51,52.00 339.71,52.00 342.91,77.25 346.10,52.00 349.30,52.00 352.50,52.00 355.69,77.18 358.89,52.00 362.09,52.00 365.29,52.00 368.48,77.12 371.68,52.00 374.88,52.00 378.07,52.00 381.27,77.07 384.47,52.00 387.66,52.00 390.86,52.00 394.06,77.02 397.25,52.00 400.45,52.00 403.65,52.00 406.84,76.97 410.04,52.00 413.24,52.00 416.43,52.00 419.63,76.93 422.83,52.00 426.02,52.00 429.22,52.00 432.42,76.88 435.61,52.00 438.81,52.00 442.01,52.00 445.20,76.85 448.40,52.00 451.60,52.00 454.80,52.00 457.99,76.81 461.19,52.00 464.39,52.00 467.58,52.00 470.78,76.78 473.98,52.00 477.17,52.00 480.37,52.00 483.57,76.75 486.76,52.00 489.96,52.00 493.16,52.00 496.35,76.72 499.55,52.00 502.75,52.00 505.94,52.00 509.14,76.69 512.34,52.00 515.53,52.00 518.73,52.00 521.93,76.66 525.12,52.00 528.32,52.00 531.52,52.00 534.71,76.64 537.91,52.00 541.11,52.00 544.31,52.00 547.50,76.61 550.70,52.00 553.90,52.00 557.09,52.00 560.29,76.59 563.49,52.00 566.68,52.00 569.88,52.00 573.08,76.57 576.27,52.00 579.47,52.00 582.67,52.00 585.86,76.55 589.06,52.00 592.26,52.00 595.45,52.00 598.65,76.53 601.85,52.00 605.04,52.00 608.24,52.00 611.44,76.51 614.63,52.00 617.83,52.00 621.03,52.00 624.22,76.49 627.42,52.00 630.62,52.00 633.82,52.00 637.01,76.47 640.21,52.00 643.41,52.00 646.60,52.00 649.80,76.46 653.00,52.00 656.19,52.00 659.39,52.00 662.59,76.44 665.78,52.00 668.98,52.00 672.18,52.00 675.37,76.43 678.57,52.00 681.77,52.00 684.96,52.00 688.16,76.41 691.36,52.00 694.55,52.00 697.75,52.00 700.95,76.40 704.14,52.00 707.34,52.00 710.54,52.00 713.73,76.38 716.93,52.00 720.13,52.00 723.33,52.00 726.52,76.37 729.72,52.00 732.92,52.00 736.11,52.00 739.31,76.36 742.51,52.00 745.70,52.00 748.90,52.00 752.10,76.35 755.29,52.00 758.49,52.00 761.69,52.00 764.88,76.33 768.08,52.00 771.28,52.00 774.47,52.00 777.67,76.32 780.87,52.00 784.06,52.00 787.26,52.00 790.46,76.31 793.65,52.00 796.85,52.00 800.05,52.00 803.24,76.30 806.44,52.00 809.64,52.00 812.84,52.00 816.03,76.29 819.23,52.00 822.43,52.00 825.62,52.00 828.82,76.28 832.02,52.00 835.21,52.00 838.41,52.00 841.61,76.27 844.80,52.00 848.00,52.00" />
<polyline fill="none" stroke="#f59e0b" stroke-width="3" points="52.00,209.93 55.20,209.93 58.39,209.93 61.59,209.93 64.79,209.93 67.98,203.37 71.18,198.16 74.38,241.89 77.57,181.46 80.77,166.51 83.97,166.51 87.16,162.16 90.36,162.16 93.56,149.87 96.76,149.87 99.95,188.40 103.15,138.77 106.35,136.33 109.54,136.33 112.74,130.20 115.94,129.40 119.13,129.40 122.33,129.40 125.53,160.41 128.72,115.78 131.92,115.78 135.12,115.78 138.31,115.78 141.51,115.78 144.71,115.78 147.90,115.78 151.10,158.11 154.30,115.78 157.49,115.78 160.69,115.78 163.89,115.78 167.08,115.78 170.28,115.78 173.48,115.78 176.67,156.73 179.87,115.78 183.07,115.78 186.27,115.78 189.46,115.78 192.66,115.78 195.86,115.78 199.05,115.78 202.25,155.81 205.45,115.78 208.64,115.78 211.84,115.78 215.04,115.78 218.23,115.78 221.43,115.78 224.63,115.78 227.82,155.15 231.02,115.78 234.22,115.78 237.41,115.78 240.61,115.78 243.81,115.78 247.00,115.78 250.20,115.78 253.40,154.65 256.59,115.78 259.79,115.78 262.99,115.78 266.18,115.78 269.38,115.78 272.58,115.78 275.78,115.78 278.97,154.27 282.17,115.78 285.37,115.78 288.56,115.78 291.76,115.78 294.96,115.78 298.15,115.78 301.35,115.78 304.55,153.96 307.74,115.78 310.94,115.78 314.14,115.78 317.33,115.78 320.53,115.78 323.73,115.78 326.92,115.78 330.12,153.71 333.32,115.78 336.51,115.78 339.71,115.78 342.91,115.78 346.10,115.78 349.30,115.78 352.50,115.78 355.69,153.50 358.89,115.78 362.09,115.78 365.29,115.78 368.48,115.78 371.68,115.78 374.88,115.78 378.07,115.78 381.27,153.33 384.47,115.78 387.66,115.78 390.86,115.78 394.06,115.78 397.25,115.78 400.45,115.78 403.65,115.78 406.84,153.17 410.04,115.78 413.24,115.78 416.43,115.78 419.63,115.78 422.83,115.78 426.02,115.78 429.22,115.78 432.42,153.04 435.61,115.78 438.81,115.78 442.01,115.78 445.20,115.78 448.40,115.78 451.60,115.78 454.80,115.78 457.99,152.93 461.19,115.78 464.39,115.78 467.58,115.78 470.78,115.78 473.98,115.78 477.17,115.78 480.37,115.78 483.57,152.82 486.76,115.78 489.96,115.78 493.16,115.78 496.35,115.78 499.55,115.78 502.75,115.78 505.94,115.78 509.14,152.73 512.34,115.78 515.53,115.78 518.73,115.78 521.93,115.78 525.12,115.78 528.32,115.78 531.52,115.78 534.71,152.65 537.91,115.78 541.11,115.78 544.31,115.78 547.50,115.78 550.70,115.78 553.90,115.78 557.09,115.78 560.29,152.58 563.49,115.78 566.68,115.78 569.88,115.78 573.08,115.78 576.27,115.78 579.47,115.78 582.67,115.78 585.86,152.51 589.06,115.78 592.26,115.78 595.45,115.78 598.65,115.78 601.85,115.78 605.04,115.78 608.24,115.78 611.44,152.45 614.63,115.78 617.83,115.78 621.03,115.78 624.22,115.78 627.42,115.78 630.62,115.78 633.82,115.78 637.01,152.40 640.21,115.78 643.41,115.78 646.60,115.78 649.80,115.78 653.00,115.78 656.19,115.78 659.39,115.78 662.59,152.35 665.78,115.78 668.98,115.78 672.18,115.78 675.37,115.78 678.57,115.78 681.77,115.78 684.96,115.78 688.16,152.30 691.36,115.78 694.55,115.78 697.75,115.78 700.95,115.78 704.14,115.78 707.34,115.78 710.54,115.78 713.73,152.26 716.93,115.78 720.13,115.78 723.33,115.78 726.52,115.78 729.72,115.78 732.92,115.78 736.11,115.78 739.31,152.22 742.51,115.78 745.70,115.78 748.90,115.78 752.10,115.78 755.29,115.78 758.49,115.78 761.69,115.78 764.88,152.19 768.08,115.78 771.28,115.78 774.47,115.78 777.67,115.78 780.87,115.78 784.06,115.78 787.26,115.78 790.46,152.15 793.65,115.78 796.85,115.78 800.05,115.78 803.24,115.78 806.44,115.78 809.64,115.78 812.84,115.78 816.03,152.12 819.23,115.78 822.43,115.78 825.62,115.78 828.82,115.78 832.02,115.78 835.21,115.78 838.41,115.78 841.61,152.09 844.80,115.78 848.00,115.78" />
<polyline fill="none" stroke="#3b82f6" stroke-width="3" points="52.00,249.63 55.20,249.63 58.39,249.63 61.59,249.63 64.79,249.63 67.98,249.63 71.18,249.63 74.38,249.63 77.57,249.63 80.77,249.63 83.97,248.81 87.16,248.81 90.36,243.80 93.56,241.82 96.76,247.40 99.95,210.00 103.15,210.00 106.35,209.58 109.54,209.58 112.74,209.58 115.94,209.58 119.13,209.31 122.33,209.31 125.53,209.31 128.72,209.31 131.92,208.52 135.12,208.52 138.31,204.20 141.51,204.20 144.71,245.17 147.90,211.76 151.10,210.43 154.30,202.50 157.49,201.10 160.69,201.10 163.89,196.29 167.08,196.29 170.28,196.29 173.48,191.36 176.67,191.36 179.87,191.36 183.07,176.99 186.27,176.99 189.46,176.99 192.66,221.74 195.86,173.58 199.05,173.58 202.25,173.16 205.45,173.16 208.64,173.16 211.84,166.77 215.04,160.93 218.23,160.93 221.43,160.93 224.63,160.93 227.82,145.09 231.02,145.09 234.22,145.09 237.41,145.09 240.61,183.55 243.81,145.09 247.00,145.09 250.20,145.09 253.40,145.09 256.59,141.13 259.79,141.13 262.99,141.13 266.18,134.69 269.38,134.69 272.58,117.25 275.78,117.25 278.97,117.25 282.17,117.25 285.37,117.25 288.56,155.85 291.76,117.25 294.96,117.25 298.15,117.25 301.35,117.25 304.55,117.25 307.74,117.25 310.94,117.25 314.14,117.25 317.33,117.25 320.53,117.25 323.73,117.25 326.92,117.25 330.12,117.25 333.32,117.25 336.51,155.36 339.71,117.25 342.91,117.25 346.10,117.25 349.30,117.25 352.50,117.25 355.69,117.25 358.89,117.25 362.09,117.25 365.29,117.25 368.48,117.25 371.68,117.25 374.88,117.25 378.07,117.25 381.27,117.25 384.47,155.01 387.66,117.25 390.86,117.25 394.06,117.25 397.25,117.25 400.45,117.25 403.65,117.25 406.84,117.25 410.04,117.25 413.24,117.25 416.43,117.25 419.63,117.25 422.83,117.25 426.02,117.25 429.22,117.25 432.42,154.74 435.61,117.25 438.81,117.25 442.01,117.25 445.20,117.25 448.40,117.25 451.60,117.25 454.80,117.25 457.99,117.25 461.19,117.25 464.39,117.25 467.58,117.25 470.78,117.25 473.98,117.25 477.17,117.25 480.37,154.54 483.57,117.25 486.76,117.25 489.96,117.25 493.16,117.25 496.35,117.25 499.55,117.25 502.75,117.25 505.94,117.25 509.14,117.25 512.34,117.25 515.53,117.25 518.73,117.25 521.93,117.25 525.12,117.25 528.32,154.38 531.52,117.25 534.71,117.25 537.91,117.25 541.11,117.25 544.31,117.25 547.50,117.25 550.70,117.25 553.90,117.25 557.09,117.25 560.29,117.25 563.49,117.25 566.68,117.25 569.88,117.25 573.08,117.25 576.27,154.24 579.47,117.25 582.67,117.25 585.86,117.25 589.06,117.25 592.26,117.25 595.45,117.25 598.65,117.25 601.85,117.25 605.04,117.25 608.24,117.25 611.44,117.25 614.63,117.25 617.83,117.25 621.03,117.25 624.22,154.13 627.42,117.25 630.62,117.25 633.82,117.25 637.01,117.25 640.21,117.25 643.41,117.25 646.60,117.25 649.80,117.25 653.00,117.25 656.19,117.25 659.39,117.25 662.59,117.25 665.78,117.25 668.98,117.25 672.18,154.03 675.37,117.25 678.57,117.25 681.77,117.25 684.96,117.25 688.16,117.25 691.36,117.25 694.55,117.25 697.75,117.25 700.95,117.25 704.14,117.25 707.34,117.25 710.54,117.25 713.73,117.25 716.93,117.25 720.13,153.95 723.33,117.25 726.52,117.25 729.72,117.25 732.92,117.25 736.11,117.25 739.31,117.25 742.51,117.25 745.70,117.25 748.90,117.25 752.10,117.25 755.29,117.25 758.49,117.25 761.69,117.25 764.88,117.25 768.08,153.88 771.28,117.25 774.47,117.25 777.67,117.25 780.87,117.25 784.06,117.25 787.26,117.25 790.46,117.25 793.65,117.25 796.85,117.25 800.05,117.25 803.24,117.25 806.44,117.25 809.64,117.25 812.84,117.25 816.03,153.82 819.23,117.25 822.43,117.25 825.62,117.25 828.82,117.25 832.02,117.25 835.21,117.25 838.41,117.25 841.61,117.25 844.80,117.25 848.00,117.25" />
<polyline fill="none" stroke="#22c55e" stroke-width="3" points="52.00,368.00 55.20,368.00 58.39,368.00 61.59,368.00 64.79,368.00 67.98,368.00 71.18,368.00 74.38,368.00 77.57,368.00 80.77,368.00 83.97,368.00 87.16,368.00 90.36,368.00 93.56,368.00 96.76,368.00 99.95,368.00 103.15,368.00 106.35,368.00 109.54,368.00 112.74,368.00 115.94,368.00 119.13,368.00 122.33,368.00 125.53,368.00 128.72,368.00 131.92,368.00 135.12,368.00 138.31,368.00 141.51,368.00 144.71,368.00 147.90,368.00 151.10,368.00 154.30,368.00 157.49,368.00 160.69,336.55 163.89,332.19 167.08,332.19 170.28,332.19 173.48,332.19 176.67,332.19 179.87,332.19 183.07,332.19 186.27,332.19 189.46,332.19 192.66,332.19 195.86,332.19 199.05,332.19 202.25,332.19 205.45,332.19 208.64,332.19 211.84,332.19 215.04,332.19 218.23,332.19 221.43,332.19 224.63,331.21 227.82,329.62 231.02,329.62 234.22,329.62 237.41,329.62 240.61,329.62 243.81,329.62 247.00,329.62 250.20,329.62 253.40,329.62 256.59,329.62 259.79,329.62 262.99,329.62 266.18,329.62 269.38,329.62 272.58,329.62 275.78,329.62 278.97,329.62 282.17,329.62 285.37,329.62 288.56,295.93 291.76,270.22 294.96,256.35 298.15,251.96 301.35,250.20 304.55,248.45 307.74,246.69 310.94,246.69 314.14,246.69 317.33,246.69 320.53,246.69 323.73,246.69 326.92,246.69 330.12,246.69 333.32,246.69 336.51,246.69 339.71,246.69 342.91,246.69 346.10,246.69 349.30,246.69 352.50,246.69 355.69,246.69 358.89,246.69 362.09,246.69 365.29,246.69 368.48,246.69 371.68,246.69 374.88,246.69 378.07,246.69 381.27,246.69 384.47,246.69 387.66,246.69 390.86,246.69 394.06,246.69 397.25,246.69 400.45,246.69 403.65,246.69 406.84,246.69 410.04,246.69 413.24,246.69 416.43,246.69 419.63,246.69 422.83,246.69 426.02,246.69 429.22,246.69 432.42,216.14 435.61,185.60 438.81,185.60 442.01,185.60 445.20,185.60 448.40,185.60 451.60,185.60 454.80,185.60 457.99,185.60 461.19,185.60 464.39,185.60 467.58,185.60 470.78,185.60 473.98,185.60 477.17,185.60 480.37,185.60 483.57,185.60 486.76,185.60 489.96,185.60 493.16,185.60 496.35,185.60 499.55,185.60 502.75,185.60 505.94,185.60 509.14,185.60 512.34,185.60 515.53,185.60 518.73,185.60 521.93,185.60 525.12,185.60 528.32,185.60 531.52,185.60 534.71,185.60 537.91,185.60 541.11,185.60 544.31,185.60 547.50,185.60 550.70,185.60 553.90,185.60 557.09,185.60 560.29,149.35 563.49,149.35 566.68,149.35 569.88,149.35 573.08,149.35 576.27,149.35 579.47,149.35 582.67,149.35 585.86,149.35 589.06,149.35 592.26,149.35 595.45,149.35 598.65,149.35 601.85,149.35 605.04,149.35 608.24,149.35 611.44,149.35 614.63,149.35 617.83,149.35 621.03,149.35 624.22,149.35 627.42,149.35 630.62,149.35 633.82,149.35 637.01,149.35 640.21,149.35 643.41,149.35 646.60,149.35 649.80,149.35 653.00,149.35 656.19,149.35 659.39,149.35 662.59,149.35 665.78,149.35 668.98,149.35 672.18,149.35 675.37,149.35 678.57,149.35 681.77,149.35 684.96,149.35 688.16,162.75 691.36,162.91 694.55,162.90 697.75,162.90 700.95,162.90 704.14,162.90 707.34,162.90 710.54,162.89 713.73,162.89 716.93,162.89 720.13,162.89 723.33,162.89 726.52,162.88 729.72,162.88 732.92,162.88 736.11,162.88 739.31,162.88 742.51,162.88 745.70,162.87 748.90,162.87 752.10,162.87 755.29,162.87 758.49,162.87 761.69,162.87 764.88,162.86 768.08,162.86 771.28,162.86 774.47,162.86 777.67,162.86 780.87,162.86 784.06,162.86 787.26,162.85 790.46,162.85 793.65,162.85 796.85,162.85 800.05,162.85 803.24,162.85 806.44,162.85 809.64,162.84 812.84,162.84 816.03,162.84 819.23,162.84 822.43,162.84 825.62,162.84 828.82,162.84 832.02,162.83 835.21,162.83 838.41,162.83 841.61,162.83 844.80,162.83 848.00,162.83" />
<text x="52" y="404" fill="#ef4444" font-size="14">naive</text>
<text x="222" y="404" fill="#f59e0b" font-size="14">baseline</text>
<text x="392" y="404" fill="#3b82f6" font-size="14">adaptive</text>
<text x="562" y="404" fill="#22c55e" font-size="14">comptext_v7</text>
</svg>