<svg xmlns="http://www.w3.org/2000/svg" width="940" height="420" viewBox="0 0 940 420">
<rect width="100%" height="100%" fill="#0f172a" />
<text x="18" y="28" fill="#e2e8f0" font-size="22" font-family="sans-serif">Failure point timelines</text>
<text x="18" y="62" fill="#cbd5e1" font-size="9">naive:hidden_constraint_trap</text>
<line x1="220" y1="58" x2="900" y2="58" stroke="#334155" />
<circle cx="226.80" cy="58" r="4" fill="#ef4444" />
<text x="18" y="74" fill="#cbd5e1" font-size="9">baseline:hidden_constraint_trap</text>
<line x1="220" y1="70" x2="900" y2="70" stroke="#334155" />
<circle cx="226.80" cy="70" r="4" fill="#f59e0b" />
<text x="18" y="86" fill="#cbd5e1" font-size="9">adaptive:hidden_constraint_trap</text>
<line x1="220" y1="82" x2="900" y2="82" stroke="#334155" />
<circle cx="226.80" cy="82" r="4" fill="#3b82f6" />
<text x="18" y="98" fill="#cbd5e1" font-size="9">comptext_v7:hidden_constraint_trap</text>
<line x1="220" y1="94" x2="900" y2="94" stroke="#334155" />
<circle cx="730.00" cy="94" r="4" fill="#22c55e" />
<text x="18" y="110" fill="#cbd5e1" font-size="9">naive:temporal_order_confusion</text>
<line x1="220" y1="106" x2="900" y2="106" stroke="#334155" />
<circle cx="226.80" cy="106" r="4" fill="#ef4444" />
<text x="18" y="122" fill="#cbd5e1" font-size="9">baseline:temporal_order_confusion</text>
<line x1="220" y1="118" x2="900" y2="118" stroke="#334155" />
<circle cx="260.80" cy="118" r="4" fill="#f59e0b" />
<text x="18" y="134" fill="#cbd5e1" font-size="9">adaptive:temporal_order_confusion</text>
<line x1="220" y1="130" x2="900" y2="130" stroke="#334155" />
<circle cx="322.00" cy="130" r="4" fill="#3b82f6" />
<text x="18" y="146" fill="#cbd5e1" font-size="9">comptext_v7:temporal_order_confusion</text>
<line x1="220" y1="142" x2="900" y2="142" stroke="#334155" />
<circle cx="730.00" cy="142" r="4" fill="#22c55e" />
<text x="18" y="158" fill="#cbd5e1" font-size="9">naive:architecture_mutation_attack</text>
<line x1="220" y1="154" x2="900" y2="154" stroke="#334155" />
<circle cx="226.80" cy="154" r="4" fill="#ef4444" />
<text x="18" y="170" fill="#cbd5e1" font-size="9">baseline:architecture_mutation_attack</text>
<line x1="220" y1="166" x2="900" y2="166" stroke="#334155" />
<circle cx="226.80" cy="166" r="4" fill="#f59e0b" />
<text x="18" y="182" fill="#cbd5e1" font-size="9">adaptive:architecture_mutation_attack</text>
<line x1="220" y1="178" x2="900" y2="178" stroke="#334155" />
<circle cx="226.80" cy="178" r="4" fill="#3b82f6" />
<text x="18" y="194" fill="#cbd5e1" font-size="9">comptext_v7:architecture_mutation_attack</text>
<line x1="220" y1="190" x2="900" y2="190" stroke="#334155" />
<circle cx="832.00" cy="190" r="4" fill="#22c55e" />
<text x="18" y="206" fill="#cbd5e1" font-size="9">naive:contradictory_instruction_inje</text>
<line x1="220" y1="202" x2="900" y2="202" stroke="#334155" />
<circle cx="226.80" cy="202" r="4" fill="#ef4444" />
<text x="18" y="218" fill="#cbd5e1" font-size="9">baseline:contradictory_instruction_inje</text>
<line x1="220" y1="214" x2="900" y2="214" stroke="#334155" />
<circle cx="226.80" cy="214" r="4" fill="#f59e0b" />
<text x="18" y="230" fill="#cbd5e1" font-size="9">adaptive:contradictory_instruction_inje</text>
<line x1="220" y1="226" x2="900" y2="226" stroke="#334155" />
<circle cx="226.80" cy="226" r="4" fill="#3b82f6" />
<text x="18" y="242" fill="#cbd5e1" font-size="9">comptext_v7:contradictory_instruction_inje</text>
<line x1="220" y1="238" x2="900" y2="238" stroke="#334155" />
<circle cx="730.00" cy="238" r="4" fill="#22c55e" />
<text x="18" y="254" fill="#cbd5e1" font-size="9">naive:dependency_inversion_test</text>
<line x1="220" y1="250" x2="900" y2="250" stroke="#334155" />
<circle cx="226.80" cy="250" r="4" fill="#ef4444" />
<text x="18" y="266" fill="#cbd5e1" font-size="9">baseline:dependency_inversion_test</text>
<line x1="220" y1="262" x2="900" y2="262" stroke="#334155" />
<circle cx="226.80" cy="262" r="4" fill="#f59e0b" />
<text x="18" y="278" fill="#cbd5e1" font-size="9">adaptive:dependency_inversion_test</text>
<line x1="220" y1="274" x2="900" y2="274" stroke="#334155" />
<circle cx="226.80" cy="274" r="4" fill="#3b82f6" />
<text x="18" y="290" fill="#cbd5e1" font-size="9">comptext_v7:dependency_inversion_test</text>
<line x1="220" y1="286" x2="900" y2="286" stroke="#334155" />
<circle cx="900.00" cy="286" r="4" fill="#22c55e" />
<text x="18" y="302" fill="#cbd5e1" font-size="9">naive:semantic_ambiguity_attack</text>
<line x1="220" y1="298" x2="900" y2="298" stroke="#334155" />
<circle cx="226.80" cy="298" r="4" fill="#ef4444" />
<text x="18" y="314" fill="#cbd5e1" font-size="9">baseline:semantic_ambiguity_attack</text>
<line x1="220" y1="310" x2="900" y2="310" stroke="#334155" />
<circle cx="226.80" cy="310" r="4" fill="#f59e0b" />
<text x="18" y="326" fill="#cbd5e1" font-size="9">adaptive:semantic_ambiguity_attack</text>
<line x1="220" y1="322" x2="900" y2="322" stroke="#334155" />
<circle cx="226.80" cy="322" r="4" fill="#3b82f6" />
<text x="18" y="338" fill="#cbd5e1" font-size="9">comptext_v7:semantic_ambiguity_attack</text>
<line x1="220" y1="334" x2="900" y2="334" stroke="#334155" />
<circle cx="730.00" cy="334" r="4" fill="#22c55e" />
<text x="18" y="350" fill="#cbd5e1" font-size="9">naive:context_fragmentation</text>
<line x1="220" y1="346" x2="900" y2="346" stroke="#334155" />
<circle cx="226.80" cy="346" r="4" fill="#ef4444" />
<text x="18" y="362" fill="#cbd5e1" font-size="9">baseline:context_fragmentation</text>
<line x1="220" y1="358" x2="900" y2="358" stroke="#334155" />
<circle cx="260.80" cy="358" r="4" fill="#f59e0b" />
<text x="18" y="374" fill="#cbd5e1" font-size="9">adaptive:context_fragmentation</text>
<line x1="220" y1="370" x2="900" y2="370" stroke="#334155" />
<circle cx="322.00" cy="370" r="4" fill="#3b82f6" />
<text x="18" y="386" fill="#cbd5e1" font-size="9">comptext_v7:context_fragmentation</text>
<line x1="220" y1="382" x2="900" y2="382" stroke="#334155" />
<circle cx="730.00" cy="382" r="4" fill="#22c55e" />
</svg>