<svg xmlns="http://www.w3.org/2000/svg" width="900" height="420" viewBox="0 0 900 420">
<rect width="100%" height="100%" fill="#0f172a" />
<text x="52" y="32" fill="#e2e8f0" font-size="22" font-family="sans-serif">Hidden constraint survival curves</text>
<line x1="52" y1="368" x2="848" y2="368" stroke="#94a3b8" />
<line x1="52" y1="52" x2="52" y2="368" stroke="#94a3b8" />
<polyline fill="none" stroke="#ef4444" stroke-width="3" points="52.00,295.50 55.20,368.00 58.39,368.00 61.59,368.00 64.79,368.00 67.98,368.00 71.18,368.00 74.38,368.00 77.57,368.00 80.77,368.00 83.97,368.00 87.16,368.00 90.36,368.00 93.56,368.00 96.76,368.00 99.95,368.00 103.15,368.00 106.35,368.00 109.54,368.00 112.74,368.00 115.94,368.00 119.13,368.00 122.33,368.00 125.53,368.00 128.72,368.00 131.92,368.00 135.12,368.00 138.31,368.00 141.51,368.00 144.71,368.00 147.90,368.00 151.10,368.00 154.30,368.00 157.49,368.00 160.69,368.00 163.89,368.00 167.08,368.00 170.28,368.00 173.48,368.00 176.67,368.00 179.87,368.00 183.07,368.00 186.27,368.00 189.46,368.00 192.66,368.00 195.86,368.00 199.05,368.00 202.25,368.00 205.45,368.00 208.64,368.00 211.84,368.00 215.04,368.00 218.23,368.00 221.43,368.00 224.63,368.00 227.82,368.00 231.02,368.00 234.22,368.00 237.41,368.00 240.61,368.00 243.81,368.00 247.00,368.00 250.20,368.00 253.40,368.00 256.59,368.00 259.79,368.00 262.99,368.00 266.18,368.00 269.38,368.00 272.58,368.00 275.78,368.00 278.97,368.00 282.17,368.00 285.37,368.00 288.56,368.00 291.76,368.00 294.96,368.00 298.15,368.00 301.35,368.00 304.55,368.00 307.74,368.00 310.94,368.00 314.14,368.00 317.33,368.00 320.53,368.00 323.73,368.00 326.92,368.00 330.12,368.00 333.32,368.00 336.51,368.00 339.71,368.00 342.91,368.00 346.10,368.00 349.30,368.00 352.50,368.00 355.69,368.00 358.89,368.00 362.09,368.00 365.29,368.00 368.48,368.00 371.68,368.00 374.88,368.00 378.07,368.00 381.27,368.00 384.47,368.00 387.66,368.00 390.86,368.00 394.06,368.00 397.25,368.00 400.45,368.00 403.65,368.00 406.84,368.00 410.04,368.00 413.24,368.00 416.43,368.00 419.63,368.00 422.83,368.00 426.02,368.00 429.22,368.00 432.42,368.00 435.61,368.00 438.81,368.00 442.01,368.00 445.20,368.00 448.40,368.00 451.60,368.00 454.80,368.00 457.99,368.00 461.19,368.00 464.39,368.00 467.58,368.00 470.78,368.00 473.98,368.00 477.17,368.00 480.37,368.00 483.57,368.00 486.76,368.00 489.96,368.00 493.16,368.00 496.35,368.00 499.55,368.00 502.75,368.00 505.94,368.00 509.14,368.00 512.34,368.00 515.53,368.00 518.73,368.00 521.93,368.00 525.12,368.00 528.32,368.00 531.52,368.00 534.71,368.00 537.91,368.00 541.11,368.00 544.31,368.00 547.50,368.00 550.70,368.00 553.90,368.00 557.09,368.00 560.29,368.00 563.49,368.00 566.68,368.00 569.88,368.00 573.08,368.00 576.27,368.00 579.47,368.00 582.67,368.00 585.86,368.00 589.06,368.00 592.26,368.00 595.45,368.00 598.65,368.00 601.85,368.00 605.04,368.00 608.24,368.00 611.44,368.00 614.63,368.00 617.83,368.00 621.03,368.00 624.22,368.00 627.42,368.00 630.62,368.00 633.82,368.00 637.01,368.00 640.21,368.00 643.41,368.00 646.60,368.00 649.80,368.00 653.00,368.00 656.19,368.00 659.39,368.00 662.59,368.00 665.78,368.00 668.98,368.00 672.18,368.00 675.37,368.00 678.57,368.00 681.77,368.00 684.96,368.00 688.16,368.00 691.36,368.00 694.55,368.00 697.75,368.00 700.95,368.00 704.14,368.00 707.34,368.00 710.54,368.00 713.73,368.00 716.93,368.00 720.13,368.00 723.33,368.00 726.52,368.00 729.72,368.00 732.92,368.00 736.11,368.00 739.31,368.00 742.51,368.00 745.70,368.00 748.90,368.00 752.10,368.00 755.29,368.00 758.49,368.00 761.69,368.00 764.88,368.00 768.08,368.00 771.28,368.00 774.47,368.00 777.67,368.00 780.87,368.00 784.06,368.00 787.26,368.00 790.46,368.00 793.65,368.00 796.85,368.00 800.05,368.00 803.24,368.00 806.44,368.00 809.64,368.00 812.84,368.00 816.03,368.00 819.23,368.00 822.43,368.00 825.62,368.00 828.82,368.00 832.02,368.00 835.21,368.00 838.41,368.00 841.61,368.00 844.80,368.00 848.00,368.00" />
<polyline fill="none" stroke="#f59e0b" stroke-width="3" points="52.00,158.91 55.20,158.91 58.39,158.91 61.59,158.91 64.79,158.91 67.98,222.99 71.18,222.99 74.38,226.68 77.57,226.68 80.77,226.68 83.97,226.68 87.16,295.50 90.36,295.50 93.56,295.50 96.76,295.50 99.95,295.50 103.15,295.50 106.35,295.50 109.54,295.50 112.74,295.50 115.94,295.50 119.13,295.50 122.33,295.50 125.53,302.61 128.72,302.61 131.92,302.61 135.12,302.61 138.31,302.61 141.51,302.61 144.71,302.61 147.90,302.61 151.10,302.61 154.30,302.61 157.49,302.61 160.69,302.61 163.89,302.61 167.08,302.61 170.28,302.61 173.48,302.61 176.67,302.61 179.87,302.61 183.07,302.61 186.27,302.61 189.46,302.61 192.66,302.61 195.86,302.61 199.05,302.61 202.25,302.61 205.45,302.61 208.64,302.61 211.84,302.61 215.04,302.61 218.23,302.61 221.43,302.61 224.63,302.61 227.82,302.61 231.02,302.61 234.22,302.61 237.41,302.61 240.61,302.61 243.81,302.61 247.00,302.61 250.20,302.61 253.40,302.61 256.59,302.61 259.79,302.61 262.99,302.61 266.18,302.61 269.38,302.61 272.58,302.61 275.78,302.61 278.97,302.61 282.17,302.61 285.37,302.61 288.56,302.61 291.76,302.61 294.96,302.61 298.15,302.61 301.35,302.61 304.55,302.61 307.74,302.61 310.94,302.61 314.14,302.61 317.33,302.61 320.53,302.61 323.73,302.61 326.92,302.61 330.12,302.61 333.32,302.61 336.51,302.61 339.71,302.61 342.91,302.61 346.10,302.61 349.30,302.61 352.50,302.61 355.69,302.61 358.89,302.61 362.09,302.61 365.29,302.61 368.48,302.61 371.68,302.61 374.88,302.61 378.07,302.61 381.27,302.61 384.47,302.61 387.66,302.61 390.86,302.61 394.06,302.61 397.25,302.61 400.45,302.61 403.65,302.61 406.84,302.61 410.04,302.61 413.24,302.61 416.43,302.61 419.63,302.61 422.83,302.61 426.02,302.61 429.22,302.61 432.42,302.61 435.61,302.61 438.81,302.61 442.01,302.61 445.20,302.61 448.40,302.61 451.60,302.61 454.80,302.61 457.99,302.61 461.19,302.61 464.39,302.61 467.58,302.61 470.78,302.61 473.98,302.61 477.17,302.61 480.37,302.61 483.57,302.61 486.76,302.61 489.96,302.61 493.16,302.61 496.35,302.61 499.55,302.61 502.75,302.61 505.94,302.61 509.14,302.61 512.34,302.61 515.53,302.61 518.73,302.61 521.93,302.61 525.12,302.61 528.32,302.61 531.52,302.61 534.71,302.61 537.91,302.61 541.11,302.61 544.31,302.61 547.50,302.61 550.70,302.61 553.90,302.61 557.09,302.61 560.29,302.61 563.49,302.61 566.68,302.61 569.88,302.61 573.08,302.61 576.27,302.61 579.47,302.61 582.67,302.61 585.86,302.61 589.06,302.61 592.26,302.61 595.45,302.61 598.65,302.61 601.85,302.61 605.04,302.61 608.24,302.61 611.44,302.61 614.63,302.61 617.83,302.61 621.03,302.61 624.22,302.61 627.42,302.61 630.62,302.61 633.82,302.61 637.01,302.61 640.21,302.61 643.41,302.61 646.60,302.61 649.80,302.61 653.00,302.61 656.19,302.61 659.39,302.61 662.59,302.61 665.78,302.61 668.98,302.61 672.18,302.61 675.37,302.61 678.57,302.61 681.77,302.61 684.96,302.61 688.16,302.61 691.36,302.61 694.55,302.61 697.75,302.61 700.95,302.61 704.14,302.61 707.34,302.61 710.54,302.61 713.73,302.61 716.93,302.61 720.13,302.61 723.33,302.61 726.52,302.61 729.72,302.61 732.92,302.61 736.11,302.61 739.31,302.61 742.51,302.61 745.70,302.61 748.90,302.61 752.10,302.61 755.29,302.61 758.49,302.61 761.69,302.61 764.88,302.61 768.08,302.61 771.28,302.61 774.47,302.61 777.67,302.61 780.87,302.61 784.06,302.61 787.26,302.61 790.46,302.61 793.65,302.61 796.85,302.61 800.05,302.61 803.24,302.61 806.44,302.61 809.64,302.61 812.84,302.61 816.03,302.61 819.23,302.61 822.43,302.61 825.62,302.61 828.82,302.61 832.02,302.61 835.21,302.61 838.41,302.61 841.61,302.61 844.80,302.61 848.00,302.61" />
<polyline fill="none" stroke="#3b82f6" stroke-width="3" points="52.00,99.05 55.20,99.05 58.39,99.05 61.59,99.05 64.79,99.05 67.98,99.05 71.18,99.05 74.38,99.05 77.57,99.05 80.77,99.05 83.97,150.49 87.16,150.49 90.36,150.49 93.56,153.12 96.76,153.12 99.95,153.12 103.15,153.12 106.35,153.12 109.54,153.12 112.74,153.12 115.94,153.12 119.13,222.99 122.33,222.99 125.53,222.99 128.72,222.99 131.92,222.99 135.12,222.99 138.31,222.99 141.51,222.99 144.71,222.99 147.90,222.99 151.10,222.99 154.30,295.50 157.49,295.50 160.69,295.50 163.89,295.50 167.08,295.50 170.28,295.50 173.48,295.50 176.67,295.50 179.87,295.50 183.07,295.50 186.27,295.50 189.46,295.50 192.66,295.50 195.86,295.50 199.05,295.50 202.25,295.50 205.45,295.50 208.64,295.50 211.84,295.50 215.04,295.50 218.23,295.50 221.43,295.50 224.63,295.50 227.82,295.50 231.02,295.50 234.22,295.50 237.41,295.50 240.61,295.50 243.81,295.50 247.00,295.50 250.20,295.50 253.40,295.50 256.59,295.50 259.79,295.50 262.99,295.50 266.18,295.50 269.38,295.50 272.58,302.61 275.78,302.61 278.97,302.61 282.17,302.61 285.37,302.61 288.56,302.61 291.76,302.61 294.96,302.61 298.15,302.61 301.35,302.61 304.55,302.61 307.74,302.61 310.94,302.61 314.14,302.61 317.33,302.61 320.53,302.61 323.73,302.61 326.92,302.61 330.12,302.61 333.32,302.61 336.51,302.61 339.71,302.61 342.91,302.61 346.10,302.61 349.30,302.61 352.50,302.61 355.69,302.61 358.89,302.61 362.09,302.61 365.29,302.61 368.48,302.61 371.68,302.61 374.88,302.61 378.07,302.61 381.27,302.61 384.47,302.61 387.66,302.61 390.86,302.61 394.06,302.61 397.25,302.61 400.45,302.61 403.65,302.61 406.84,302.61 410.04,302.61 413.24,302.61 416.43,302.61 419.63,302.61 422.83,302.61 426.02,302.61 429.22,302.61 432.42,302.61 435.61,302.61 438.81,302.61 442.01,302.61 445.20,302.61 448.40,302.61 451.60,302.61 454.80,302.61 457.99,302.61 461.19,302.61 464.39,302.61 467.58,302.61 470.78,302.61 473.98,302.61 477.17,302.61 480.37,302.61 483.57,302.61 486.76,302.61 489.96,302.61 493.16,302.61 496.35,302.61 499.55,302.61 502.75,302.61 505.94,302.61 509.14,302.61 512.34,302.61 515.53,302.61 518.73,302.61 521.93,302.61 525.12,302.61 528.32,302.61 531.52,302.61 534.71,302.61 537.91,302.61 541.11,302.61 544.31,302.61 547.50,302.61 550.70,302.61 553.90,302.61 557.09,302.61 560.29,302.61 563.49,302.61 566.68,302.61 569.88,302.61 573.08,302.61 576.27,302.61 579.47,302.61 582.67,302.61 585.86,302.61 589.06,302.61 592.26,302.61 595.45,302.61 598.65,302.61 601.85,302.61 605.04,302.61 608.24,302.61 611.44,302.61 614.63,302.61 617.83,302.61 621.03,302.61 624.22,302.61 627.42,302.61 630.62,302.61 633.82,302.61 637.01,302.61 640.21,302.61 643.41,302.61 646.60,302.61 649.80,302.61 653.00,302.61 656.19,302.61 659.39,302.61 662.59,302.61 665.78,302.61 668.98,302.61 672.18,302.61 675.37,302.61 678.57,302.61 681.77,302.61 684.96,302.61 688.16,302.61 691.36,302.61 694.55,302.61 697.75,302.61 700.95,302.61 704.14,302.61 707.34,302.61 710.54,302.61 713.73,302.61 716.93,302.61 720.13,302.61 723.33,302.61 726.52,302.61 729.72,302.61 732.92,302.61 736.11,302.61 739.31,302.61 742.51,302.61 745.70,302.61 748.90,302.61 752.10,302.61 755.29,302.61 758.49,302.61 761.69,302.61 764.88,302.61 768.08,302.61 771.28,302.61 774.47,302.61 777.67,302.61 780.87,302.61 784.06,302.61 787.26,302.61 790.46,302.61 793.65,302.61 796.85,302.61 800.05,302.61 803.24,302.61 806.44,302.61 809.64,302.61 812.84,302.61 816.03,302.61 819.23,302.61 822.43,302.61 825.62,302.61 828.82,302.61 832.02,302.61 835.21,302.61 838.41,302.61 841.61,302.61 844.80,302.61 848.00,302.61" />
<polyline fill="none" stroke="#22c55e" stroke-width="3" points="52.00,52.00 55.20,52.00 58.39,52.00 61.59,52.00 64.79,52.00 67.98,52.00 71.18,52.00 74.38,52.00 77.57,52.00 80.77,52.00 83.97,52.00 87.16,52.00 90.36,52.00 93.56,52.00 96.76,52.00 99.95,52.00 103.15,52.00 106.35,52.00 109.54,52.00 112.74,52.00 115.94,52.00 119.13,52.00 122.33,52.00 125.53,52.00 128.72,52.00 131.92,52.00 135.12,52.00 138.31,52.00 141.51,52.00 144.71,52.00 147.90,52.00 151.10,52.00 154.30,52.00 157.49,52.00 160.69,82.55 163.89,87.81 167.08,87.81 170.28,87.81 173.48,87.81 176.67,87.81 179.87,87.81 183.07,87.81 186.27,87.81 189.46,87.81 192.66,87.81 195.86,87.81 199.05,87.81 202.25,87.81 205.45,87.81 208.64,87.81 211.84,87.81 215.04,87.81 218.23,87.81 221.43,87.81 224.63,87.81 227.82,87.81 231.02,87.81 234.22,87.81 237.41,87.81 240.61,87.81 243.81,87.81 247.00,87.81 250.20,87.81 253.40,87.81 256.59,87.81 259.79,87.81 262.99,87.81 266.18,87.81 269.38,87.81 272.58,87.81 275.78,87.81 278.97,87.81 282.17,87.81 285.37,87.81 288.56,128.54 291.76,177.70 294.96,203.68 298.15,212.46 301.35,215.97 304.55,219.48 307.74,222.99 310.94,222.99 314.14,222.99 317.33,222.99 320.53,222.99 323.73,222.99 326.92,222.99 330.12,222.99 333.32,222.99 336.51,222.99 339.71,222.99 342.91,222.99 346.10,222.99 349.30,222.99 352.50,222.99 355.69,222.99 358.89,222.99 362.09,222.99 365.29,222.99 368.48,222.99 371.68,222.99 374.88,222.99 378.07,222.99 381.27,222.99 384.47,222.99 387.66,222.99 390.86,222.99 394.06,222.99 397.25,222.99 400.45,222.99 403.65,222.99 406.84,222.99 410.04,222.99 413.24,222.99 416.43,222.99 419.63,222.99 422.83,222.99 426.02,222.99 429.22,222.99 432.42,226.68 435.61,237.21 438.81,237.21 442.01,237.21 445.20,237.21 448.40,237.21 451.60,237.21 454.80,237.21 457.99,237.21 461.19,237.21 464.39,237.21 467.58,237.21 470.78,237.21 473.98,237.21 477.17,237.21 480.37,237.21 483.57,237.21 486.76,237.21 489.96,237.21 493.16,237.21 496.35,237.21 499.55,237.21 502.75,237.21 505.94,237.21 509.14,237.21 512.34,237.21 515.53,237.21 518.73,237.21 521.93,237.21 525.12,237.21 528.32,237.21 531.52,237.21 534.71,237.21 537.91,237.21 541.11,237.21 544.31,237.21 547.50,237.21 550.70,237.21 553.90,237.21 557.09,237.21 560.29,295.50 563.49,295.50 566.68,295.50 569.88,295.50 573.08,295.50 576.27,295.50 579.47,295.50 582.67,295.50 585.86,295.50 589.06,295.50 592.26,295.50 595.45,295.50 598.65,295.50 601.85,295.50 605.04,295.50 608.24,295.50 611.44,295.50 614.63,295.50 617.83,295.50 621.03,295.50 624.22,295.50 627.42,295.50 630.62,295.50 633.82,295.50 637.01,295.50 640.21,295.50 643.41,295.50 646.60,295.50 649.80,295.50 653.00,295.50 656.19,295.50 659.39,295.50 662.59,295.50 665.78,295.50 668.98,295.50 672.18,295.50 675.37,295.50 678.57,295.50 681.77,295.50 684.96,295.50 688.16,295.50 691.36,295.50 694.55,295.50 697.75,295.50 700.95,295.50 704.14,295.50 707.34,295.50 710.54,295.50 713.73,295.50 716.93,295.50 720.13,295.50 723.33,295.50 726.52,295.50 729.72,295.50 732.92,295.50 736.11,295.50 739.31,295.50 742.51,295.50 745.70,295.50 748.90,295.50 752.10,295.50 755.29,295.50 758.49,295.50 761.69,295.50 764.88,295.50 768.08,295.50 771.28,295.50 774.47,295.50 777.67,295.50 780.87,295.50 784.06,295.50 787.26,295.50 790.46,295.50 793.65,295.50 796.85,295.50 800.05,295.50 803.24,295.50 806.44,295.50 809.64,295.50 812.84,295.50 816.03,295.50 819.23,295.50 822.43,295.50 825.62,295.50 828.82,295.50 832.02,295.50 835.21,295.50 838.41,295.50 841.61,295.50 844.80,295.50 848.00,295.50" />
<text x="52" y="404" fill="#ef4444" font-size="14">naive</text>
<text x="222" y="404" fill="#f59e0b" font-size="14">baseline</text>
<text x="392" y="404" fill="#3b82f6" font-size="14">adaptive</text>
<text x="562" y="404" fill="#22c55e" font-size="14">comptext_v7</text>
</svg>