<svg xmlns="http://www.w3.org/2000/svg" width="900" height="420" viewBox="0 0 900 420">
<rect width="100%" height="100%" fill="#0f172a" />
<text x="52" y="32" fill="#e2e8f0" font-size="22" font-family="sans-serif">Replay collapse curves</text>
<line x1="52" y1="368" x2="848" y2="368" stroke="#94a3b8" />
<line x1="52" y1="52" x2="52" y2="368" stroke="#94a3b8" />
<polyline fill="none" stroke="#ef4444" stroke-width="3" points="52.00,253.04 60.04,274.11 68.08,283.33 76.12,323.44 84.16,329.31 92.20,338.87 100.24,338.87 108.28,347.87 116.32,349.78 124.36,349.78 132.40,349.78 140.44,347.87 148.48,349.78 156.53,349.78 164.57,349.78 172.61,347.87 180.65,349.78 188.69,349.78 196.73,349.78 204.77,347.87 212.81,349.78 220.85,349.78 228.89,349.78 236.93,347.87 244.97,349.78 253.01,349.78 261.05,349.78 269.09,347.87 277.13,349.78 285.17,349.78 293.21,349.78 301.25,347.87 309.29,349.78 317.33,349.78 325.37,349.78 333.41,347.87 341.45,349.78 349.49,349.78 357.54,349.78 365.58,347.87 373.62,349.78 381.66,349.78 389.70,349.78 397.74,347.87 405.78,349.78 413.82,349.78 421.86,349.78 429.90,347.87 437.94,349.78 445.98,349.78 454.02,349.78 462.06,347.87 470.10,349.78 478.14,349.78 486.18,349.78 494.22,347.87 502.26,349.78 510.30,349.78 518.34,349.78 526.38,347.87 534.42,349.78 542.46,349.78 550.51,349.78 558.55,347.87 566.59,349.78 574.63,349.78 582.67,349.78 590.71,347.87 598.75,349.78 606.79,349.78 614.83,349.78 622.87,347.87 630.91,349.78 638.95,349.78 646.99,349.78 655.03,347.87 663.07,349.78 671.11,349.78 679.15,349.78 687.19,347.87 695.23,349.78 703.27,349.78 711.31,349.78 719.35,347.87 727.39,349.78 735.43,349.78 743.47,349.78 751.52,347.87 759.56,349.78 767.60,349.78 775.64,349.78 783.68,347.87 791.72,349.78 799.76,349.78 807.80,349.78 815.84,347.87 823.88,349.78 831.92,349.78 839.96,349.78 848.00,347.87" />
<polyline fill="none" stroke="#f59e0b" stroke-width="3" points="52.00,132.87 60.04,132.87 68.08,132.87 76.12,132.87 84.16,132.87 92.20,145.64 100.24,153.21 108.28,211.10 116.32,198.84 124.36,201.62 132.40,201.62 140.44,223.61 148.48,223.61 156.53,234.38 164.57,234.38 172.61,249.54 180.65,236.14 188.69,245.32 196.73,245.32 204.77,252.84 212.81,259.40 220.85,259.40 228.89,259.40 236.93,279.90 244.97,269.48 253.01,269.48 261.05,269.48 269.09,269.48 277.13,269.48 285.17,269.48 293.21,269.48 301.25,279.90 309.29,269.48 317.33,269.48 325.37,269.48 333.41,269.48 341.45,269.48 349.49,269.48 357.54,269.48 365.58,279.90 373.62,269.48 381.66,269.48 389.70,269.48 397.74,269.48 405.78,269.48 413.82,269.48 421.86,269.48 429.90,279.90 437.94,269.48 445.98,269.48 454.02,269.48 462.06,269.48 470.10,269.48 478.14,269.48 486.18,269.48 494.22,279.90 502.26,269.48 510.30,269.48 518.34,269.48 526.38,269.48 534.42,269.48 542.46,269.48 550.51,269.48 558.55,279.90 566.59,269.48 574.63,269.48 582.67,269.48 590.71,269.48 598.75,269.48 606.79,269.48 614.83,269.48 622.87,279.90 630.91,269.48 638.95,269.48 646.99,269.48 655.03,269.48 663.07,269.48 671.11,269.48 679.15,269.48 687.19,279.90 695.23,269.48 703.27,269.48 711.31,269.48 719.35,269.48 727.39,269.48 735.43,269.48 743.47,269.48 751.52,279.90 759.56,269.48 767.60,269.48 775.64,269.48 783.68,269.48 791.72,269.48 799.76,269.48 807.80,269.48 815.84,279.90 823.88,269.48 831.92,269.48 839.96,269.48 848.00,269.48" />
<polyline fill="none" stroke="#3b82f6" stroke-width="3" points="52.00,88.17 60.04,88.17 68.08,88.17 76.12,88.17 84.16,88.17 92.20,88.17 100.24,88.17 108.28,88.17 116.32,88.17 124.36,88.17 132.40,91.41 140.44,91.41 148.48,97.15 156.53,99.44 164.57,167.76 172.61,138.18 180.65,138.83 188.69,140.85 196.73,140.85 204.77,140.85 212.81,140.85 220.85,153.15 228.89,153.15 236.93,153.15 244.97,153.15 253.01,160.60 261.05,160.60 269.09,169.92 277.13,169.92 285.17,178.69 293.21,152.97 301.25,162.20 309.29,183.27 317.33,183.92 325.37,183.92 333.41,186.38 341.45,186.38 349.49,186.38 357.54,194.77 365.58,194.77 373.62,194.77 381.66,204.42 389.70,204.42 397.74,204.42 405.78,246.98 413.82,231.12 421.86,231.12 429.90,222.57 437.94,222.57 445.98,222.57 454.02,223.22 462.06,231.39 470.10,231.39 478.14,231.39 486.18,231.39 494.22,241.70 502.26,241.70 510.30,241.70 518.34,241.70 526.38,253.93 534.42,241.70 542.46,241.70 550.51,241.70 558.55,241.70 566.59,248.27 574.63,248.27 582.67,248.27 590.71,255.71 598.75,255.71 606.79,265.86 614.83,265.86 622.87,265.86 630.91,265.86 638.95,265.86 646.99,276.83 655.03,265.86 663.07,265.86 671.11,265.86 679.15,265.86 687.19,265.86 695.23,265.86 703.27,265.86 711.31,265.86 719.35,265.86 727.39,265.86 735.43,265.86 743.47,265.86 751.52,265.86 759.56,265.86 767.60,276.83 775.64,265.86 783.68,265.86 791.72,265.86 799.76,265.86 807.80,265.86 815.84,265.86 823.88,265.86 831.92,265.86 839.96,265.86 848.00,265.86" />
<polyline fill="none" stroke="#22c55e" stroke-width="3" points="52.00,52.00 60.04,52.00 68.08,52.00 76.12,52.00 84.16,52.00 92.20,52.00 100.24,52.00 108.28,52.00 116.32,52.00 124.36,52.00 132.40,52.00 140.44,52.00 148.48,52.00 156.53,52.00 164.57,52.00 172.61,52.00 180.65,52.00 188.69,52.00 196.73,52.00 204.77,52.00 212.81,52.00 220.85,52.00 228.89,52.00 236.93,52.00 244.97,52.00 253.01,52.00 261.05,52.00 269.09,52.00 277.13,52.00 285.17,52.00 293.21,52.00 301.25,52.00 309.29,52.00 317.33,52.00 325.37,63.32 333.41,65.16 341.45,65.16 349.49,65.16 357.54,65.16 365.58,65.16 373.62,65.16 381.66,65.16 389.70,65.16 397.74,65.16 405.78,65.16 413.82,65.16 421.86,65.16 429.90,65.16 437.94,65.16 445.98,65.16 454.02,65.16 462.06,65.16 470.10,65.16 478.14,65.16 486.18,74.51 494.22,75.16 502.26,75.16 510.30,75.16 518.34,75.16 526.38,75.16 534.42,75.16 542.46,75.16 550.51,75.16 558.55,75.16 566.59,75.16 574.63,75.16 582.67,75.16 590.71,75.16 598.75,75.16 606.79,75.16 614.83,75.16 622.87,75.16 630.91,75.16 638.95,75.16 646.99,88.16 655.03,91.35 663.07,92.41 671.11,93.48 679.15,94.54 687.19,95.64 695.23,95.64 703.27,95.64 711.31,95.64 719.35,95.64 727.39,95.64 735.43,95.64 743.47,95.64 751.52,95.64 759.56,95.64 767.60,101.01 775.64,108.59 783.68,108.59 791.72,108.59 799.76,108.59 807.80,108.59 815.84,108.59 823.88,108.59 831.92,108.59 839.96,108.59 848.00,118.67" />
<text x="52" y="404" fill="#ef4444" font-size="14">naive</text>
<text x="222" y="404" fill="#f59e0b" font-size="14">baseline</text>
<text x="392" y="404" fill="#3b82f6" font-size="14">adaptive</text>
<text x="562" y="404" fill="#22c55e" font-size="14">comptext_v7</text>
</svg>