<svg xmlns="http://www.w3.org/2000/svg" width="900" height="420" viewBox="0 0 900 420">
<rect width="100%" height="100%" fill="#0f172a" />
<text x="52" y="32" fill="#e2e8f0" font-size="22" font-family="sans-serif">Replay collapse curves</text>
<line x1="52" y1="368" x2="848" y2="368" stroke="#94a3b8" />
<line x1="52" y1="52" x2="52" y2="368" stroke="#94a3b8" />
<polyline fill="none" stroke="#ef4444" stroke-width="3" points="52.00,255.53 55.20,272.01 58.39,280.10 61.59,330.28 64.79,334.21 67.98,342.81 71.18,342.81 74.38,353.75 77.57,355.53 80.77,355.53 83.97,355.53 87.16,354.01 90.36,355.53 93.56,355.53 96.76,355.53 99.95,354.14 103.15,355.53 106.35,355.53 109.54,355.53 112.74,354.21 115.94,355.53 119.13,355.53 122.33,355.53 125.53,354.27 128.72,355.53 131.92,355.53 135.12,355.53 138.31,354.30 141.51,355.53 144.71,355.53 147.90,355.53 151.10,354.33 154.30,355.53 157.49,355.53 160.69,355.53 163.89,354.35 167.08,355.53 170.28,355.53 173.48,355.53 176.67,354.37 179.87,355.53 183.07,355.53 186.27,355.53 189.46,354.39 192.66,355.53 195.86,355.53 199.05,355.53 202.25,354.40 205.45,355.53 208.64,355.53 211.84,355.53 215.04,354.41 218.23,355.53 221.43,355.53 224.63,355.53 227.82,354.42 231.02,355.53 234.22,355.53 237.41,355.53 240.61,354.42 243.81,355.53 247.00,355.53 250.20,355.53 253.40,354.43 256.59,355.53 259.79,355.53 262.99,355.53 266.18,354.44 269.38,355.53 272.58,355.53 275.78,355.53 278.97,354.44 282.17,355.53 285.37,355.53 288.56,355.53 291.76,354.44 294.96,355.53 298.15,355.53 301.35,355.53 304.55,354.45 307.74,355.53 310.94,355.53 314.14,355.53 317.33,354.45 320.53,355.53 323.73,355.53 326.92,355.53 330.12,354.46 333.32,355.53 336.51,355.53 339.71,355.53 342.91,354.46 346.10,355.53 349.30,355.53 352.50,355.53 355.69,354.46 358.89,355.53 362.09,355.53 365.29,355.53 368.48,354.46 371.68,355.53 374.88,355.53 378.07,355.53 381.27,354.47 384.47,355.53 387.66,355.53 390.86,355.53 394.06,354.47 397.25,355.53 400.45,355.53 403.65,355.53 406.84,354.47 410.04,355.53 413.24,355.53 416.43,355.53 419.63,354.47 422.83,355.53 426.02,355.53 429.22,355.53 432.42,354.47 435.61,355.53 438.81,355.53 442.01,355.53 445.20,354.48 448.40,355.53 451.60,355.53 454.80,355.53 457.99,354.48 461.19,355.53 464.39,355.53 467.58,355.53 470.78,354.48 473.98,355.53 477.17,355.53 480.37,355.53 483.57,354.48 486.76,355.53 489.96,355.53 493.16,355.53 496.35,354.48 499.55,355.53 502.75,355.53 505.94,355.53 509.14,354.48 512.34,355.53 515.53,355.53 518.73,355.53 521.93,354.48 525.12,355.53 528.32,355.53 531.52,355.53 534.71,354.49 537.91,355.53 541.11,355.53 544.31,355.53 547.50,354.49 550.70,355.53 553.90,355.53 557.09,355.53 560.29,354.49 563.49,355.53 566.68,355.53 569.88,355.53 573.08,354.49 576.27,355.53 579.47,355.53 582.67,355.53 585.86,354.49 589.06,355.53 592.26,355.53 595.45,355.53 598.65,354.49 601.85,355.53 605.04,355.53 608.24,355.53 611.44,354.49 614.63,355.53 617.83,355.53 621.03,355.53 624.22,354.49 627.42,355.53 630.62,355.53 633.82,355.53 637.01,354.49 640.21,355.53 643.41,355.53 646.60,355.53 649.80,354.49 653.00,355.53 656.19,355.53 659.39,355.53 662.59,354.49 665.78,355.53 668.98,355.53 672.18,355.53 675.37,354.50 678.57,355.53 681.77,355.53 684.96,355.53 688.16,354.50 691.36,355.53 694.55,355.53 697.75,355.53 700.95,354.50 704.14,355.53 707.34,355.53 710.54,355.53 713.73,354.50 716.93,355.53 720.13,355.53 723.33,355.53 726.52,354.50 729.72,355.53 732.92,355.53 736.11,355.53 739.31,354.50 742.51,355.53 745.70,355.53 748.90,355.53 752.10,354.50 755.29,355.53 758.49,355.53 761.69,355.53 764.88,354.50 768.08,355.53 771.28,355.53 774.47,355.53 777.67,354.50 780.87,355.53 784.06,355.53 787.26,355.53 790.46,354.50 793.65,355.53 796.85,355.53 800.05,355.53 803.24,354.50 806.44,355.53 809.64,355.53 812.84,355.53 816.03,354.50 819.23,355.53 822.43,355.53 825.62,355.53 828.82,354.50 832.02,355.53 835.21,355.53 838.41,355.53 841.61,354.50 844.80,355.53 848.00,355.53" />
<polyline fill="none" stroke="#f59e0b" stroke-width="3" points="52.00,131.19 55.20,131.19 58.39,131.19 61.59,131.19 64.79,131.19 67.98,147.03 71.18,154.46 74.38,210.52 77.57,200.94 80.77,206.50 83.97,206.50 87.16,221.93 90.36,221.93 93.56,233.69 96.76,233.69 99.95,248.97 103.15,237.99 106.35,245.75 109.54,245.75 112.74,255.43 115.94,261.91 119.13,261.91 122.33,261.91 125.53,283.57 128.72,274.94 131.92,274.94 135.12,274.94 138.31,274.94 141.51,274.94 144.71,274.94 147.90,274.94 151.10,283.67 154.30,274.94 157.49,274.94 160.69,274.94 163.89,274.94 167.08,274.94 170.28,274.94 173.48,274.94 176.67,283.73 179.87,274.94 183.07,274.94 186.27,274.94 189.46,274.94 192.66,274.94 195.86,274.94 199.05,274.94 202.25,283.77 205.45,274.94 208.64,274.94 211.84,274.94 215.04,274.94 218.23,274.94 221.43,274.94 224.63,274.94 227.82,283.80 231.02,274.94 234.22,274.94 237.41,274.94 240.61,274.94 243.81,274.94 247.00,274.94 250.20,274.94 253.40,283.82 256.59,274.94 259.79,274.94 262.99,274.94 266.18,274.94 269.38,274.94 272.58,274.94 275.78,274.94 278.97,283.84 282.17,274.94 285.37,274.94 288.56,274.94 291.76,274.94 294.96,274.94 298.15,274.94 301.35,274.94 304.55,283.85 307.74,274.94 310.94,274.94 314.14,274.94 317.33,274.94 320.53,274.94 323.73,274.94 326.92,274.94 330.12,283.86 333.32,274.94 336.51,274.94 339.71,274.94 342.91,274.94 346.10,274.94 349.30,274.94 352.50,274.94 355.69,283.87 358.89,274.94 362.09,274.94 365.29,274.94 368.48,274.94 371.68,274.94 374.88,274.94 378.07,274.94 381.27,283.88 384.47,274.94 387.66,274.94 390.86,274.94 394.06,274.94 397.25,274.94 400.45,274.94 403.65,274.94 406.84,283.89 410.04,274.94 413.24,274.94 416.43,274.94 419.63,274.94 422.83,274.94 426.02,274.94 429.22,274.94 432.42,283.89 435.61,274.94 438.81,274.94 442.01,274.94 445.20,274.94 448.40,274.94 451.60,274.94 454.80,274.94 457.99,283.90 461.19,274.94 464.39,274.94 467.58,274.94 470.78,274.94 473.98,274.94 477.17,274.94 480.37,274.94 483.57,283.90 486.76,274.94 489.96,274.94 493.16,274.94 496.35,274.94 499.55,274.94 502.75,274.94 505.94,274.94 509.14,283.91 512.34,274.94 515.53,274.94 518.73,274.94 521.93,274.94 525.12,274.94 528.32,274.94 531.52,274.94 534.71,283.91 537.91,274.94 541.11,274.94 544.31,274.94 547.50,274.94 550.70,274.94 553.90,274.94 557.09,274.94 560.29,283.91 563.49,274.94 566.68,274.94 569.88,274.94 573.08,274.94 576.27,274.94 579.47,274.94 582.67,274.94 585.86,283.92 589.06,274.94 592.26,274.94 595.45,274.94 598.65,274.94 601.85,274.94 605.04,274.94 608.24,274.94 611.44,283.92 614.63,274.94 617.83,274.94 621.03,274.94 624.22,274.94 627.42,274.94 630.62,274.94 633.82,274.94 637.01,283.92 640.21,274.94 643.41,274.94 646.60,274.94 649.80,274.94 653.00,274.94 656.19,274.94 659.39,274.94 662.59,283.92 665.78,274.94 668.98,274.94 672.18,274.94 675.37,274.94 678.57,274.94 681.77,274.94 684.96,274.94 688.16,283.93 691.36,274.94 694.55,274.94 697.75,274.94 700.95,274.94 704.14,274.94 707.34,274.94 710.54,274.94 713.73,283.93 716.93,274.94 720.13,274.94 723.33,274.94 726.52,274.94 729.72,274.94 732.92,274.94 736.11,274.94 739.31,283.93 742.51,274.94 745.70,274.94 748.90,274.94 752.10,274.94 755.29,274.94 758.49,274.94 761.69,274.94 764.88,283.93 768.08,274.94 771.28,274.94 774.47,274.94 777.67,274.94 780.87,274.94 784.06,274.94 787.26,274.94 790.46,283.93 793.65,274.94 796.85,274.94 800.05,274.94 803.24,274.94 806.44,274.94 809.64,274.94 812.84,274.94 816.03,283.93 819.23,274.94 822.43,274.94 825.62,274.94 828.82,274.94 832.02,274.94 835.21,274.94 838.41,274.94 841.61,283.94 844.80,274.94 848.00,274.94" />
<polyline fill="none" stroke="#3b82f6" stroke-width="3" points="52.00,73.50 55.20,73.50 58.39,73.50 61.59,73.50 64.79,73.50 67.98,73.50 71.18,73.50 74.38,73.50 77.57,73.50 80.77,73.50 83.97,84.09 87.16,84.09 90.36,90.95 93.56,93.24 96.76,159.73 99.95,135.96 103.15,135.96 106.35,137.79 109.54,137.79 112.74,137.79 115.94,137.79 119.13,153.53 122.33,153.53 125.53,153.53 128.72,153.53 131.92,160.09 135.12,160.09 138.31,171.59 141.51,171.59 144.71,174.89 147.90,152.60 151.10,161.70 154.30,177.52 157.49,178.66 160.69,178.66 163.89,180.10 167.08,180.10 170.28,180.10 173.48,187.75 176.67,187.75 179.87,187.75 183.07,199.66 186.27,199.66 189.46,199.66 192.66,239.94 195.86,224.93 199.05,224.93 202.25,216.58 205.45,216.58 208.64,217.57 211.84,221.67 215.04,230.00 218.23,230.00 221.43,230.00 224.63,230.00 227.82,242.97 231.02,242.97 234.22,242.97 237.41,242.97 240.61,254.12 243.81,242.97 247.00,242.97 250.20,242.97 253.40,242.97 256.59,249.51 259.79,249.51 262.99,249.51 266.18,259.27 269.38,259.27 272.58,272.41 275.78,272.41 278.97,272.41 282.17,272.41 285.37,272.41 288.56,281.70 291.76,272.41 294.96,272.41 298.15,272.41 301.35,272.41 304.55,272.41 307.74,272.41 310.94,272.41 314.14,272.41 317.33,272.41 320.53,272.41 323.73,272.41 326.92,272.41 330.12,272.41 333.32,272.41 336.51,281.72 339.71,272.41 342.91,272.41 346.10,272.41 349.30,272.41 352.50,272.41 355.69,272.41 358.89,272.41 362.09,272.41 365.29,272.41 368.48,272.41 371.68,272.41 374.88,272.41 378.07,272.41 381.27,272.41 384.47,281.74 387.66,272.41 390.86,272.41 394.06,272.41 397.25,272.41 400.45,272.41 403.65,272.41 406.84,272.41 410.04,272.41 413.24,272.41 416.43,272.41 419.63,272.41 422.83,272.41 426.02,272.41 429.22,272.41 432.42,281.75 435.61,272.41 438.81,272.41 442.01,272.41 445.20,272.41 448.40,272.41 451.60,272.41 454.80,272.41 457.99,272.41 461.19,272.41 464.39,272.41 467.58,272.41 470.78,272.41 473.98,272.41 477.17,272.41 480.37,281.76 483.57,272.41 486.76,272.41 489.96,272.41 493.16,272.41 496.35,272.41 499.55,272.41 502.75,272.41 505.94,272.41 509.14,272.41 512.34,272.41 515.53,272.41 518.73,272.41 521.93,272.41 525.12,272.41 528.32,281.77 531.52,272.41 534.71,272.41 537.91,272.41 541.11,272.41 544.31,272.41 547.50,272.41 550.70,272.41 553.90,272.41 557.09,272.41 560.29,272.41 563.49,272.41 566.68,272.41 569.88,272.41 573.08,272.41 576.27,281.77 579.47,272.41 582.67,272.41 585.86,272.41 589.06,272.41 592.26,272.41 595.45,272.41 598.65,272.41 601.85,272.41 605.04,272.41 608.24,272.41 611.44,272.41 614.63,272.41 617.83,272.41 621.03,272.41 624.22,281.78 627.42,272.41 630.62,272.41 633.82,272.41 637.01,272.41 640.21,272.41 643.41,272.41 646.60,272.41 649.80,272.41 653.00,272.41 656.19,272.41 659.39,272.41 662.59,272.41 665.78,272.41 668.98,272.41 672.18,281.78 675.37,272.41 678.57,272.41 681.77,272.41 684.96,272.41 688.16,272.41 691.36,272.41 694.55,272.41 697.75,272.41 700.95,272.41 704.14,272.41 707.34,272.41 710.54,272.41 713.73,272.41 716.93,272.41 720.13,281.79 723.33,272.41 726.52,272.41 729.72,272.41 732.92,272.41 736.11,272.41 739.31,272.41 742.51,272.41 745.70,272.41 748.90,272.41 752.10,272.41 755.29,272.41 758.49,272.41 761.69,272.41 764.88,272.41 768.08,281.79 771.28,272.41 774.47,272.41 777.67,272.41 780.87,272.41 784.06,272.41 787.26,272.41 790.46,272.41 793.65,272.41 796.85,272.41 800.05,272.41 803.24,272.41 806.44,272.41 809.64,272.41 812.84,272.41 816.03,281.79 819.23,272.41 822.43,272.41 825.62,272.41 828.82,272.41 832.02,272.41 835.21,272.41 838.41,272.41 841.61,272.41 844.80,272.41 848.00,272.41" />
<polyline fill="none" stroke="#22c55e" stroke-width="3" points="52.00,52.00 55.20,52.00 58.39,52.00 61.59,52.00 64.79,52.00 67.98,52.00 71.18,52.00 74.38,52.00 77.57,52.00 80.77,52.00 83.97,52.00 87.16,52.00 90.36,52.00 93.56,52.00 96.76,52.00 99.95,52.00 103.15,52.00 106.35,52.00 109.54,52.00 112.74,52.00 115.94,52.00 119.13,52.00 122.33,52.00 125.53,52.00 128.72,52.00 131.92,52.00 135.12,52.00 138.31,52.00 141.51,52.00 144.71,52.00 147.90,52.00 151.10,52.00 154.30,52.00 157.49,52.00 160.69,52.00 163.89,53.56 167.08,53.56 170.28,53.56 173.48,53.56 176.67,53.56 179.87,53.56 183.07,53.56 186.27,53.56 189.46,53.56 192.66,53.56 195.86,53.56 199.05,53.56 202.25,53.56 205.45,53.56 208.64,53.56 211.84,53.56 215.04,53.56 218.23,53.56 221.43,53.56 224.63,58.40 227.82,59.02 231.02,59.02 234.22,59.02 237.41,59.02 240.61,59.02 243.81,59.02 247.00,59.02 250.20,59.02 253.40,59.02 256.59,59.02 259.79,59.02 262.99,59.02 266.18,59.02 269.38,59.02 272.58,59.02 275.78,59.02 278.97,59.02 282.17,59.02 285.37,59.02 288.56,71.88 291.76,83.33 294.96,89.46 298.15,91.49 301.35,92.30 304.55,93.12 307.74,93.93 310.94,93.93 314.14,93.93 317.33,93.93 320.53,93.93 323.73,93.93 326.92,93.93 330.12,93.93 333.32,93.93 336.51,96.99 339.71,99.39 342.91,99.39 346.10,99.39 349.30,99.39 352.50,99.39 355.69,99.39 358.89,99.39 362.09,99.39 365.29,99.39 368.48,107.57 371.68,107.57 374.88,107.57 378.07,107.57 381.27,107.57 384.47,107.57 387.66,107.57 390.86,107.57 394.06,107.57 397.25,107.57 400.45,107.57 403.65,107.57 406.84,107.57 410.04,107.57 413.24,107.57 416.43,107.57 419.63,107.57 422.83,107.57 426.02,107.57 429.22,107.57 432.42,120.91 435.61,134.09 438.81,134.09 442.01,134.09 445.20,134.09 448.40,134.09 451.60,134.09 454.80,134.09 457.99,134.09 461.19,134.09 464.39,134.09 467.58,134.09 470.78,134.09 473.98,134.09 477.17,134.09 480.37,134.09 483.57,134.09 486.76,134.09 489.96,134.09 493.16,134.09 496.35,140.77 499.55,146.72 502.75,146.72 505.94,146.72 509.14,146.72 512.34,146.72 515.53,146.72 518.73,146.72 521.93,146.72 525.12,146.72 528.32,146.72 531.52,146.72 534.71,146.72 537.91,146.72 541.11,146.72 544.31,146.72 547.50,146.72 550.70,146.72 553.90,146.72 557.09,146.72 560.29,163.10 563.49,163.10 566.68,163.10 569.88,163.10 573.08,163.10 576.27,163.10 579.47,163.10 582.67,163.10 585.86,163.10 589.06,163.10 592.26,163.10 595.45,163.10 598.65,163.10 601.85,163.10 605.04,163.10 608.24,163.10 611.44,163.10 614.63,163.10 617.83,163.10 621.03,163.10 624.22,165.81 627.42,165.81 630.62,165.81 633.82,165.81 637.01,165.81 640.21,165.81 643.41,165.81 646.60,165.81 649.80,165.81 653.00,165.81 656.19,165.81 659.39,165.81 662.59,165.81 665.78,165.81 668.98,165.81 672.18,165.81 675.37,165.81 678.57,165.81 681.77,165.81 684.96,165.81 688.16,173.02 691.36,179.43 694.55,181.48 697.75,181.48 700.95,181.48 704.14,181.48 707.34,181.48 710.54,181.48 713.73,181.48 716.93,181.48 720.13,181.48 723.33,181.48 726.52,181.48 729.72,181.48 732.92,181.48 736.11,181.48 739.31,181.48 742.51,181.48 745.70,181.48 748.90,181.48 752.10,185.94 755.29,187.63 758.49,187.63 761.69,187.63 764.88,187.63 768.08,187.63 771.28,187.63 774.47,187.63 777.67,187.63 780.87,187.63 784.06,187.63 787.26,187.63 790.46,187.63 793.65,187.63 796.85,187.63 800.05,187.63 803.24,187.63 806.44,187.63 809.64,187.63 812.84,187.63 816.03,187.32 819.23,187.32 822.43,187.32 825.62,187.32 828.82,187.32 832.02,187.32 835.21,187.32 838.41,187.32 841.61,187.32 844.80,187.32 848.00,187.32" />
<text x="52" y="404" fill="#ef4444" font-size="14">naive</text>
<text x="222" y="404" fill="#f59e0b" font-size="14">baseline</text>
<text x="392" y="404" fill="#3b82f6" font-size="14">adaptive</text>
<text x="562" y="404" fill="#22c55e" font-size="14">comptext_v7</text>
</svg>