<svg xmlns="http://www.w3.org/2000/svg" width="900" height="420" viewBox="0 0 900 420">
<rect width="100%" height="100%" fill="#0f172a" />
<text x="52" y="32" fill="#e2e8f0" font-size="22" font-family="sans-serif">Replay degradation curves</text>
<line x1="52" y1="368" x2="848" y2="368" stroke="#94a3b8" />
<line x1="52" y1="52" x2="52" y2="368" stroke="#94a3b8" />
<polyline fill="none" stroke="#3b82f6" stroke-width="3" points="52.00,76.39 68.24,76.39 84.49,76.39 100.73,76.39 116.98,76.39 133.22,76.39 149.47,76.39 165.71,76.39 181.96,76.39 198.20,76.39 214.45,76.39 230.69,76.39 246.94,76.39 263.18,80.75 279.43,95.03 295.67,110.56 311.92,139.26 328.16,110.97 344.41,110.97 360.65,113.10 376.90,113.10 393.14,113.10 409.39,113.10 425.63,113.10 441.88,113.10 458.12,113.10 474.37,113.10 490.61,128.67 506.86,128.67 523.10,146.30 539.35,146.30 555.59,162.84 571.84,162.84 588.08,186.01 604.33,162.84 620.57,163.24 636.82,163.24 653.06,163.24 669.31,163.24 685.55,165.20 701.80,165.20 718.04,181.17 734.29,181.17 750.53,181.17 766.78,200.02 783.02,200.02 799.27,200.02 815.51,216.36 831.76,216.36 848.00,216.36" />
<polyline fill="none" stroke="#f59e0b" stroke-width="3" points="52.00,149.19 68.24,149.19 84.49,149.19 100.73,149.19 116.98,149.19 133.22,149.19 149.47,149.19 165.71,165.15 181.96,201.68 198.20,200.53 214.45,200.94 230.69,200.94 246.94,200.94 263.18,202.29 279.43,202.29 295.67,219.09 311.92,219.09 328.16,249.84 344.41,240.15 360.65,256.49 376.90,256.49 393.14,261.85 409.39,261.85 425.63,278.83 441.88,278.83 458.12,278.83 474.37,300.78 490.61,298.25 506.86,298.25 523.10,298.25 539.35,298.25 555.59,298.25 571.84,298.25 588.08,298.25 604.33,298.25 620.57,300.78 636.82,298.25 653.06,298.25 669.31,298.25 685.55,298.25 701.80,298.25 718.04,298.25 734.29,298.25 750.53,298.25 766.78,300.78 783.02,298.25 799.27,298.25 815.51,298.25 831.76,298.25 848.00,298.25" />
<polyline fill="none" stroke="#22c55e" stroke-width="3" points="52.00,52.00 68.24,52.00 84.49,52.00 100.73,52.00 116.98,52.00 133.22,52.00 149.47,52.00 165.71,52.00 181.96,52.00 198.20,52.00 214.45,52.00 230.69,52.00 246.94,52.00 263.18,52.00 279.43,52.00 295.67,52.00 311.92,52.00 328.16,52.00 344.41,52.00 360.65,52.00 376.90,52.00 393.14,52.00 409.39,52.00 425.63,52.00 441.88,52.00 458.12,52.00 474.37,52.00 490.61,52.00 506.86,52.00 523.10,52.00 539.35,52.00 555.59,52.00 571.84,52.00 588.08,52.00 604.33,52.00 620.57,52.00 636.82,52.00 653.06,52.00 669.31,52.00 685.55,52.00 701.80,52.00 718.04,52.00 734.29,52.00 750.53,52.00 766.78,52.00 783.02,52.00 799.27,52.00 815.51,52.00 831.76,52.00 848.00,52.00" />
<polyline fill="none" stroke="#ef4444" stroke-width="3" points="52.00,256.49 68.24,256.49 84.49,256.49 100.73,275.01 116.98,300.78 133.22,314.83 149.47,317.45 165.71,335.46 181.96,335.46 198.20,361.07 214.45,362.51 230.69,362.51 246.94,362.51 263.18,362.51 279.43,361.07 295.67,362.51 311.92,362.51 328.16,362.51 344.41,362.51 360.65,361.07 376.90,362.51 393.14,362.51 409.39,362.51 425.63,362.51 441.88,361.07 458.12,362.51 474.37,362.51 490.61,362.51 506.86,362.51 523.10,361.07 539.35,362.51 555.59,362.51 571.84,362.51 588.08,362.51 604.33,361.07 620.57,362.51 636.82,362.51 653.06,362.51 669.31,362.51 685.55,361.07 701.80,362.51 718.04,362.51 734.29,362.51 750.53,362.51 766.78,361.07 783.02,362.51 799.27,362.51 815.51,362.51 831.76,362.51 848.00,361.07" />
<text x="52" y="404" fill="#3b82f6" font-size="14">adaptive</text>
<text x="222" y="404" fill="#f59e0b" font-size="14">baseline</text>
<text x="392" y="404" fill="#22c55e" font-size="14">comptext_v7</text>
<text x="562" y="404" fill="#ef4444" font-size="14">naive</text>
</svg>