<svg xmlns="http://www.w3.org/2000/svg" width="900" height="420" viewBox="0 0 900 420">
<rect width="100%" height="100%" fill="#0f172a" />
<text x="52" y="32" fill="#e2e8f0" font-size="22" font-family="sans-serif">Semantic drift growth</text>
<line x1="52" y1="368" x2="848" y2="368" stroke="#94a3b8" />
<line x1="52" y1="52" x2="52" y2="368" stroke="#94a3b8" />
<polyline fill="none" stroke="#3b82f6" stroke-width="3" points="52.00,293.04 68.24,293.04 84.49,293.04 100.73,293.04 116.98,293.04 133.22,293.04 149.47,293.04 165.71,293.04 181.96,293.04 198.20,293.04 214.45,293.04 230.69,293.04 246.94,293.04 263.18,286.22 279.43,285.18 295.67,283.59 311.92,271.36 328.16,283.59 344.41,283.59 360.65,270.68 376.90,270.68 393.14,270.68 409.39,270.68 425.63,270.68 441.88,270.68 458.12,270.68 474.37,270.68 490.61,247.62 506.86,247.62 523.10,242.96 539.35,242.96 555.59,241.00 571.84,241.00 588.08,230.91 604.33,241.00 620.57,241.00 636.82,241.00 653.06,241.00 669.31,241.00 685.55,230.94 701.80,230.94 718.04,207.55 734.29,207.55 750.53,207.55 766.78,200.45 783.02,200.45 799.27,200.45 815.51,198.87 831.76,198.87 848.00,198.87" />
<polyline fill="none" stroke="#f59e0b" stroke-width="3" points="52.00,225.51 68.24,225.51 84.49,225.51 100.73,225.51 116.98,225.51 133.22,225.51 149.47,225.51 165.71,202.13 181.96,186.21 198.20,193.06 214.45,193.06 230.69,193.06 246.94,193.06 263.18,187.29 279.43,187.29 295.67,162.22 311.92,162.22 328.16,145.53 344.41,150.72 360.65,149.13 376.90,149.13 393.14,146.52 409.39,146.52 425.63,121.09 441.88,121.09 458.12,121.09 474.37,111.86 490.61,112.86 506.86,112.86 523.10,112.86 539.35,112.86 555.59,112.86 571.84,112.86 588.08,112.86 604.33,112.86 620.57,111.86 636.82,112.86 653.06,112.86 669.31,112.86 685.55,112.86 701.80,112.86 718.04,112.86 734.29,112.86 750.53,112.86 766.78,111.86 783.02,112.86 799.27,112.86 815.51,112.86 831.76,112.86 848.00,112.86" />
<polyline fill="none" stroke="#22c55e" stroke-width="3" points="52.00,368.00 68.24,368.00 84.49,368.00 100.73,368.00 116.98,368.00 133.22,368.00 149.47,368.00 165.71,368.00 181.96,368.00 198.20,368.00 214.45,368.00 230.69,368.00 246.94,368.00 263.18,368.00 279.43,368.00 295.67,368.00 311.92,368.00 328.16,368.00 344.41,368.00 360.65,368.00 376.90,368.00 393.14,368.00 409.39,368.00 425.63,368.00 441.88,368.00 458.12,368.00 474.37,368.00 490.61,368.00 506.86,368.00 523.10,368.00 539.35,368.00 555.59,368.00 571.84,368.00 588.08,368.00 604.33,368.00 620.57,368.00 636.82,368.00 653.06,368.00 669.31,368.00 685.55,368.00 701.80,368.00 718.04,368.00 734.29,368.00 750.53,368.00 766.78,368.00 783.02,368.00 799.27,368.00 815.51,368.00 831.76,368.00 848.00,368.00" />
<polyline fill="none" stroke="#ef4444" stroke-width="3" points="52.00,149.13 68.24,149.13 84.49,149.13 100.73,142.70 116.98,111.86 133.22,110.80 149.47,96.14 165.71,90.72 181.96,90.72 198.20,61.00 214.45,58.13 230.69,58.13 246.94,58.13 263.18,58.13 279.43,61.00 295.67,58.13 311.92,58.13 328.16,58.13 344.41,58.13 360.65,61.00 376.90,58.13 393.14,58.13 409.39,58.13 425.63,58.13 441.88,61.00 458.12,58.13 474.37,58.13 490.61,58.13 506.86,58.13 523.10,61.00 539.35,58.13 555.59,58.13 571.84,58.13 588.08,58.13 604.33,61.00 620.57,58.13 636.82,58.13 653.06,58.13 669.31,58.13 685.55,61.00 701.80,58.13 718.04,58.13 734.29,58.13 750.53,58.13 766.78,61.00 783.02,58.13 799.27,58.13 815.51,58.13 831.76,58.13 848.00,61.00" />
<text x="52" y="404" fill="#3b82f6" font-size="14">adaptive</text>
<text x="222" y="404" fill="#f59e0b" font-size="14">baseline</text>
<text x="392" y="404" fill="#22c55e" font-size="14">comptext_v7</text>
<text x="562" y="404" fill="#ef4444" font-size="14">naive</text>
</svg>