<svg xmlns="http://www.w3.org/2000/svg" width="820" height="292" viewBox="0 0 820 292">
<rect width="100%" height="100%" fill="#0f172a" />
<text x="20" y="28" fill="#e2e8f0" font-size="22" font-family="sans-serif">Semantic stability heatmap</text>
<text x="280" y="42" fill="#e2e8f0" font-size="13">naive</text>
<text x="412" y="42" fill="#e2e8f0" font-size="13">baseline</text>
<text x="544" y="42" fill="#e2e8f0" font-size="13">adaptive</text>
<text x="676" y="42" fill="#e2e8f0" font-size="13">comptext_v7</text>
<text x="20" y="84" fill="#e2e8f0" font-size="12">semantic_ambiguity_resilience</text>
<rect x="280" y="58" width="128" height="38" fill="rgb(180,144,90)" />
<text x="314" y="83" fill="#0f172a" font-size="13">0.429</text>
<rect x="412" y="58" width="128" height="38" fill="rgb(178,145,90)" />
<text x="446" y="83" fill="#0f172a" font-size="13">0.437</text>
<rect x="544" y="58" width="128" height="38" fill="rgb(176,148,90)" />
<text x="578" y="83" fill="#0f172a" font-size="13">0.454</text>
<rect x="676" y="58" width="128" height="38" fill="rgb(140,186,90)" />
<text x="710" y="83" fill="#0f172a" font-size="13">0.708</text>
<text x="20" y="126" fill="#e2e8f0" font-size="12">temporal_consistency_score</text>
<rect x="280" y="100" width="128" height="38" fill="rgb(240,80,90)" />
<text x="314" y="125" fill="#0f172a" font-size="13">0.000</text>
<rect x="412" y="100" width="128" height="38" fill="rgb(204,118,90)" />
<text x="446" y="125" fill="#0f172a" font-size="13">0.255</text>
<rect x="544" y="100" width="128" height="38" fill="rgb(204,118,90)" />
<text x="578" y="125" fill="#0f172a" font-size="13">0.255</text>
<rect x="676" y="100" width="128" height="38" fill="rgb(100,230,90)" />
<text x="710" y="125" fill="#0f172a" font-size="13">1.000</text>
<text x="20" y="168" fill="#e2e8f0" font-size="12">architecture_mutation_resistance</text>
<rect x="280" y="142" width="128" height="38" fill="rgb(240,80,90)" />
<text x="314" y="167" fill="#0f172a" font-size="13">0.000</text>
<rect x="412" y="142" width="128" height="38" fill="rgb(208,113,90)" />
<text x="446" y="167" fill="#0f172a" font-size="13">0.226</text>
<rect x="544" y="142" width="128" height="38" fill="rgb(208,113,90)" />
<text x="578" y="167" fill="#0f172a" font-size="13">0.226</text>
<rect x="676" y="142" width="128" height="38" fill="rgb(131,196,90)" />
<text x="710" y="167" fill="#0f172a" font-size="13">0.774</text>
<text x="20" y="210" fill="#e2e8f0" font-size="12">hidden_truth_verification</text>
<rect x="280" y="184" width="128" height="38" fill="rgb(240,80,90)" />
<text x="314" y="209" fill="#0f172a" font-size="13">0.000</text>
<rect x="412" y="184" width="128" height="38" fill="rgb(202,119,90)" />
<text x="446" y="209" fill="#0f172a" font-size="13">0.265</text>
<rect x="544" y="184" width="128" height="38" fill="rgb(202,119,90)" />
<text x="578" y="209" fill="#0f172a" font-size="13">0.265</text>
<rect x="676" y="184" width="128" height="38" fill="rgb(139,188,90)" />
<text x="710" y="209" fill="#0f172a" font-size="13">0.720</text>
<text x="20" y="252" fill="#e2e8f0" font-size="12">overall_continuity</text>
<rect x="280" y="226" width="128" height="38" fill="rgb(231,89,90)" />
<text x="314" y="251" fill="#0f172a" font-size="13">0.064</text>
<rect x="412" y="226" width="128" height="38" fill="rgb(196,126,90)" />
<text x="446" y="251" fill="#0f172a" font-size="13">0.312</text>
<rect x="544" y="226" width="128" height="38" fill="rgb(194,128,90)" />
<text x="578" y="251" fill="#0f172a" font-size="13">0.323</text>
<rect x="676" y="226" width="128" height="38" fill="rgb(129,198,90)" />
<text x="710" y="251" fill="#0f172a" font-size="13">0.789</text>
</svg>