<svg xmlns="http://www.w3.org/2000/svg" width="900" height="420" viewBox="0 0 900 420">
<rect width="100%" height="100%" fill="#0f172a" />
<text x="52" y="32" fill="#e2e8f0" font-size="22" font-family="sans-serif">Drift acceleration graph</text>
<line x1="52" y1="368" x2="848" y2="368" stroke="#94a3b8" />
<line x1="52" y1="52" x2="52" y2="368" stroke="#94a3b8" />
<polyline fill="none" stroke="#ef4444" stroke-width="3" points="52.00,143.76 55.20,134.04 58.39,128.46 61.59,92.51 64.79,82.28 67.98,75.33 71.18,75.33 74.38,62.20 77.57,60.88 80.77,60.88 83.97,60.88 87.16,62.20 90.36,60.88 93.56,60.88 96.76,60.88 99.95,62.20 103.15,60.88 106.35,60.88 109.54,60.88 112.74,62.20 115.94,60.88 119.13,60.88 122.33,60.88 125.53,62.20 128.72,60.88 131.92,60.88 135.12,60.88 138.31,62.20 141.51,60.88 144.71,60.88 147.90,60.88 151.10,62.20 154.30,60.88 157.49,60.88 160.69,60.88 163.89,62.20 167.08,60.88 170.28,60.88 173.48,60.88 176.67,62.20 179.87,60.88 183.07,60.88 186.27,60.88 189.46,62.20 192.66,60.88 195.86,60.88 199.05,60.88 202.25,62.20 205.45,60.88 208.64,60.88 211.84,60.88 215.04,62.20 218.23,60.88 221.43,60.88 224.63,60.88 227.82,62.20 231.02,60.88 234.22,60.88 237.41,60.88 240.61,62.20 243.81,60.88 247.00,60.88 250.20,60.88 253.40,62.20 256.59,60.88 259.79,60.88 262.99,60.88 266.18,62.20 269.38,60.88 272.58,60.88 275.78,60.88 278.97,62.20 282.17,60.88 285.37,60.88 288.56,60.88 291.76,62.20 294.96,60.88 298.15,60.88 301.35,60.88 304.55,62.20 307.74,60.88 310.94,60.88 314.14,60.88 317.33,62.20 320.53,60.88 323.73,60.88 326.92,60.88 330.12,62.20 333.32,60.88 336.51,60.88 339.71,60.88 342.91,62.20 346.10,60.88 349.30,60.88 352.50,60.88 355.69,62.20 358.89,60.88 362.09,60.88 365.29,60.88 368.48,62.20 371.68,60.88 374.88,60.88 378.07,60.88 381.27,62.20 384.47,60.88 387.66,60.88 390.86,60.88 394.06,62.20 397.25,60.88 400.45,60.88 403.65,60.88 406.84,62.20 410.04,60.88 413.24,60.88 416.43,60.88 419.63,62.20 422.83,60.88 426.02,60.88 429.22,60.88 432.42,62.20 435.61,60.88 438.81,60.88 442.01,60.88 445.20,62.20 448.40,60.88 451.60,60.88 454.80,60.88 457.99,62.20 461.19,60.88 464.39,60.88 467.58,60.88 470.78,62.20 473.98,60.88 477.17,60.88 480.37,60.88 483.57,62.20 486.76,60.88 489.96,60.88 493.16,60.88 496.35,62.20 499.55,60.88 502.75,60.88 505.94,60.88 509.14,62.20 512.34,60.88 515.53,60.88 518.73,60.88 521.93,62.20 525.12,60.88 528.32,60.88 531.52,60.88 534.71,62.20 537.91,60.88 541.11,60.88 544.31,60.88 547.50,62.20 550.70,60.88 553.90,60.88 557.09,60.88 560.29,62.20 563.49,60.88 566.68,60.88 569.88,60.88 573.08,62.20 576.27,60.88 579.47,60.88 582.67,60.88 585.86,62.20 589.06,60.88 592.26,60.88 595.45,60.88 598.65,62.20 601.85,60.88 605.04,60.88 608.24,60.88 611.44,62.20 614.63,60.88 617.83,60.88 621.03,60.88 624.22,62.20 627.42,60.88 630.62,60.88 633.82,60.88 637.01,62.20 640.21,60.88 643.41,60.88 646.60,60.88 649.80,62.20 653.00,60.88 656.19,60.88 659.39,60.88 662.59,62.20 665.78,60.88 668.98,60.88 672.18,60.88 675.37,62.20 678.57,60.88 681.77,60.88 684.96,60.88 688.16,62.20 691.36,60.88 694.55,60.88 697.75,60.88 700.95,62.20 704.14,60.88 707.34,60.88 710.54,60.88 713.73,62.20 716.93,60.88 720.13,60.88 723.33,60.88 726.52,62.20 729.72,60.88 732.92,60.88 736.11,60.88 739.31,62.20 742.51,60.88 745.70,60.88 748.90,60.88 752.10,62.20 755.29,60.88 758.49,60.88 761.69,60.88 764.88,62.20 768.08,60.88 771.28,60.88 774.47,60.88 777.67,62.20 780.87,60.88 784.06,60.88 787.26,60.88 790.46,62.20 793.65,60.88 796.85,60.88 800.05,60.88 803.24,62.20 806.44,60.88 809.64,60.88 812.84,60.88 816.03,62.20 819.23,60.88 822.43,60.88 825.62,60.88 828.82,62.20 832.02,60.88 835.21,60.88 838.41,60.88 841.61,62.20 844.80,60.88 848.00,60.88" />
<polyline fill="none" stroke="#f59e0b" stroke-width="3" points="52.00,233.36 55.20,233.36 58.39,233.36 61.59,233.36 64.79,233.36 67.98,221.43 71.18,218.21 74.38,184.34 77.57,190.66 80.77,183.31 83.97,183.31 87.16,173.59 90.36,173.59 93.56,162.31 96.76,162.31 99.95,148.59 103.15,153.19 106.35,151.78 109.54,151.78 112.74,144.02 115.94,143.11 119.13,143.11 122.33,143.11 125.53,128.13 128.72,131.44 131.92,131.44 135.12,131.44 138.31,131.44 141.51,131.44 144.71,131.44 147.90,131.44 151.10,128.13 154.30,131.44 157.49,131.44 160.69,131.44 163.89,131.44 167.08,131.44 170.28,131.44 173.48,131.44 176.67,128.13 179.87,131.44 183.07,131.44 186.27,131.44 189.46,131.44 192.66,131.44 195.86,131.44 199.05,131.44 202.25,128.13 205.45,131.44 208.64,131.44 211.84,131.44 215.04,131.44 218.23,131.44 221.43,131.44 224.63,131.44 227.82,128.13 231.02,131.44 234.22,131.44 237.41,131.44 240.61,131.44 243.81,131.44 247.00,131.44 250.20,131.44 253.40,128.13 256.59,131.44 259.79,131.44 262.99,131.44 266.18,131.44 269.38,131.44 272.58,131.44 275.78,131.44 278.97,128.13 282.17,131.44 285.37,131.44 288.56,131.44 291.76,131.44 294.96,131.44 298.15,131.44 301.35,131.44 304.55,128.13 307.74,131.44 310.94,131.44 314.14,131.44 317.33,131.44 320.53,131.44 323.73,131.44 326.92,131.44 330.12,128.13 333.32,131.44 336.51,131.44 339.71,131.44 342.91,131.44 346.10,131.44 349.30,131.44 352.50,131.44 355.69,128.13 358.89,131.44 362.09,131.44 365.29,131.44 368.48,131.44 371.68,131.44 374.88,131.44 378.07,131.44 381.27,128.13 384.47,131.44 387.66,131.44 390.86,131.44 394.06,131.44 397.25,131.44 400.45,131.44 403.65,131.44 406.84,128.13 410.04,131.44 413.24,131.44 416.43,131.44 419.63,131.44 422.83,131.44 426.02,131.44 429.22,131.44 432.42,128.13 435.61,131.44 438.81,131.44 442.01,131.44 445.20,131.44 448.40,131.44 451.60,131.44 454.80,131.44 457.99,128.13 461.19,131.44 464.39,131.44 467.58,131.44 470.78,131.44 473.98,131.44 477.17,131.44 480.37,131.44 483.57,128.13 486.76,131.44 489.96,131.44 493.16,131.44 496.35,131.44 499.55,131.44 502.75,131.44 505.94,131.44 509.14,128.13 512.34,131.44 515.53,131.44 518.73,131.44 521.93,131.44 525.12,131.44 528.32,131.44 531.52,131.44 534.71,128.13 537.91,131.44 541.11,131.44 544.31,131.44 547.50,131.44 550.70,131.44 553.90,131.44 557.09,131.44 560.29,128.13 563.49,131.44 566.68,131.44 569.88,131.44 573.08,131.44 576.27,131.44 579.47,131.44 582.67,131.44 585.86,128.13 589.06,131.44 592.26,131.44 595.45,131.44 598.65,131.44 601.85,131.44 605.04,131.44 608.24,131.44 611.44,128.13 614.63,131.44 617.83,131.44 621.03,131.44 624.22,131.44 627.42,131.44 630.62,131.44 633.82,131.44 637.01,128.13 640.21,131.44 643.41,131.44 646.60,131.44 649.80,131.44 653.00,131.44 656.19,131.44 659.39,131.44 662.59,128.13 665.78,131.44 668.98,131.44 672.18,131.44 675.37,131.44 678.57,131.44 681.77,131.44 684.96,131.44 688.16,128.13 691.36,131.44 694.55,131.44 697.75,131.44 700.95,131.44 704.14,131.44 707.34,131.44 710.54,131.44 713.73,128.13 716.93,131.44 720.13,131.44 723.33,131.44 726.52,131.44 729.72,131.44 732.92,131.44 736.11,131.44 739.31,128.13 742.51,131.44 745.70,131.44 748.90,131.44 752.10,131.44 755.29,131.44 758.49,131.44 761.69,131.44 764.88,128.13 768.08,131.44 771.28,131.44 774.47,131.44 777.67,131.44 780.87,131.44 784.06,131.44 787.26,131.44 790.46,128.13 793.65,131.44 796.85,131.44 800.05,131.44 803.24,131.44 806.44,131.44 809.64,131.44 812.84,131.44 816.03,128.13 819.23,131.44 822.43,131.44 825.62,131.44 828.82,131.44 832.02,131.44 835.21,131.44 838.41,131.44 841.61,128.13 844.80,131.44 848.00,131.44" />
<polyline fill="none" stroke="#3b82f6" stroke-width="3" points="52.00,280.27 55.20,280.27 58.39,280.27 61.59,280.27 64.79,280.27 67.98,280.27 71.18,280.27 74.38,280.27 77.57,280.27 80.77,280.27 83.97,273.38 87.16,273.38 90.36,271.10 93.56,269.20 96.76,238.39 99.95,248.37 103.15,248.37 106.35,241.03 109.54,241.03 112.74,241.03 115.94,241.03 119.13,230.17 122.33,230.17 125.53,230.17 128.72,230.17 131.92,228.75 135.12,228.75 138.31,217.86 141.51,217.86 144.71,222.76 147.90,231.34 151.10,225.54 154.30,216.47 157.49,215.39 160.69,215.39 163.89,209.11 167.08,209.11 170.28,209.11 173.48,205.24 176.67,205.24 179.87,205.24 183.07,194.56 186.27,194.56 189.46,194.56 192.66,176.13 195.86,183.28 199.05,183.28 202.25,187.21 205.45,187.21 208.64,187.21 211.84,183.68 215.04,178.39 218.23,178.39 221.43,178.39 224.63,178.39 227.82,165.24 231.02,165.24 234.22,165.24 237.41,165.24 240.61,160.04 243.81,165.24 247.00,165.24 250.20,165.24 253.40,165.24 256.59,164.66 259.79,164.66 262.99,164.66 266.18,156.69 269.38,156.69 272.58,145.30 275.78,145.30 278.97,145.30 282.17,145.30 285.37,145.30 288.56,141.15 291.76,145.30 294.96,145.30 298.15,145.30 301.35,145.30 304.55,145.30 307.74,145.30 310.94,145.30 314.14,145.30 317.33,145.30 320.53,145.30 323.73,145.30 326.92,145.30 330.12,145.30 333.32,145.30 336.51,141.15 339.71,145.30 342.91,145.30 346.10,145.30 349.30,145.30 352.50,145.30 355.69,145.30 358.89,145.30 362.09,145.30 365.29,145.30 368.48,145.30 371.68,145.30 374.88,145.30 378.07,145.30 381.27,145.30 384.47,141.15 387.66,145.30 390.86,145.30 394.06,145.30 397.25,145.30 400.45,145.30 403.65,145.30 406.84,145.30 410.04,145.30 413.24,145.30 416.43,145.30 419.63,145.30 422.83,145.30 426.02,145.30 429.22,145.30 432.42,141.15 435.61,145.30 438.81,145.30 442.01,145.30 445.20,145.30 448.40,145.30 451.60,145.30 454.80,145.30 457.99,145.30 461.19,145.30 464.39,145.30 467.58,145.30 470.78,145.30 473.98,145.30 477.17,145.30 480.37,141.15 483.57,145.30 486.76,145.30 489.96,145.30 493.16,145.30 496.35,145.30 499.55,145.30 502.75,145.30 505.94,145.30 509.14,145.30 512.34,145.30 515.53,145.30 518.73,145.30 521.93,145.30 525.12,145.30 528.32,141.15 531.52,145.30 534.71,145.30 537.91,145.30 541.11,145.30 544.31,145.30 547.50,145.30 550.70,145.30 553.90,145.30 557.09,145.30 560.29,145.30 563.49,145.30 566.68,145.30 569.88,145.30 573.08,145.30 576.27,141.15 579.47,145.30 582.67,145.30 585.86,145.30 589.06,145.30 592.26,145.30 595.45,145.30 598.65,145.30 601.85,145.30 605.04,145.30 608.24,145.30 611.44,145.30 614.63,145.30 617.83,145.30 621.03,145.30 624.22,141.15 627.42,145.30 630.62,145.30 633.82,145.30 637.01,145.30 640.21,145.30 643.41,145.30 646.60,145.30 649.80,145.30 653.00,145.30 656.19,145.30 659.39,145.30 662.59,145.30 665.78,145.30 668.98,145.30 672.18,141.15 675.37,145.30 678.57,145.30 681.77,145.30 684.96,145.30 688.16,145.30 691.36,145.30 694.55,145.30 697.75,145.30 700.95,145.30 704.14,145.30 707.34,145.30 710.54,145.30 713.73,145.30 716.93,145.30 720.13,141.15 723.33,145.30 726.52,145.30 729.72,145.30 732.92,145.30 736.11,145.30 739.31,145.30 742.51,145.30 745.70,145.30 748.90,145.30 752.10,145.30 755.29,145.30 758.49,145.30 761.69,145.30 764.88,145.30 768.08,141.15 771.28,145.30 774.47,145.30 777.67,145.30 780.87,145.30 784.06,145.30 787.26,145.30 790.46,145.30 793.65,145.30 796.85,145.30 800.05,145.30 803.24,145.30 806.44,145.30 809.64,145.30 812.84,145.30 816.03,141.15 819.23,145.30 822.43,145.30 825.62,145.30 828.82,145.30 832.02,145.30 835.21,145.30 838.41,145.30 841.61,145.30 844.80,145.30 848.00,145.30" />
<polyline fill="none" stroke="#22c55e" stroke-width="3" points="52.00,368.00 55.20,368.00 58.39,368.00 61.59,368.00 64.79,368.00 67.98,368.00 71.18,368.00 74.38,368.00 77.57,368.00 80.77,368.00 83.97,368.00 87.16,368.00 90.36,368.00 93.56,368.00 96.76,368.00 99.95,368.00 103.15,368.00 106.35,368.00 109.54,368.00 112.74,368.00 115.94,368.00 119.13,368.00 122.33,368.00 125.53,368.00 128.72,368.00 131.92,368.00 135.12,368.00 138.31,368.00 141.51,368.00 144.71,368.00 147.90,368.00 151.10,368.00 154.30,368.00 157.49,368.00 160.69,350.40 163.89,349.09 167.08,349.09 170.28,349.09 173.48,349.09 176.67,349.09 179.87,349.09 183.07,349.09 186.27,349.09 189.46,349.09 192.66,349.09 195.86,349.09 199.05,349.09 202.25,349.09 205.45,349.09 208.64,349.09 211.84,349.09 215.04,349.09 218.23,349.09 221.43,349.09 224.63,339.51 227.82,339.51 231.02,339.51 234.22,339.51 237.41,339.51 240.61,339.51 243.81,339.51 247.00,339.51 250.20,339.51 253.40,339.51 256.59,339.51 259.79,339.51 262.99,339.51 266.18,339.51 269.38,339.51 272.58,339.51 275.78,339.51 278.97,339.51 282.17,339.51 285.37,339.51 288.56,327.05 291.76,320.63 294.96,317.16 298.15,316.06 301.35,315.62 304.55,315.18 307.74,314.74 310.94,314.74 314.14,314.74 317.33,314.74 320.53,314.74 323.73,314.74 326.92,314.74 330.12,314.74 333.32,314.74 336.51,293.66 339.71,275.57 342.91,275.57 346.10,275.57 349.30,275.57 352.50,275.57 355.69,275.57 358.89,275.57 362.09,275.57 365.29,275.57 368.48,271.55 371.68,271.55 374.88,271.55 378.07,271.55 381.27,271.55 384.47,271.55 387.66,271.55 390.86,271.55 394.06,271.55 397.25,271.55 400.45,271.55 403.65,271.55 406.84,271.55 410.04,271.55 413.24,271.55 416.43,271.55 419.63,271.55 422.83,271.55 426.02,271.55 429.22,271.55 432.42,259.45 435.61,250.36 438.81,250.36 442.01,250.36 445.20,250.36 448.40,250.36 451.60,250.36 454.80,250.36 457.99,250.36 461.19,250.36 464.39,250.36 467.58,250.36 470.78,250.36 473.98,250.36 477.17,250.36 480.37,250.36 483.57,250.36 486.76,250.36 489.96,250.36 493.16,250.36 496.35,248.26 499.55,248.26 502.75,248.26 505.94,248.26 509.14,248.26 512.34,248.26 515.53,248.26 518.73,248.26 521.93,248.26 525.12,248.26 528.32,248.26 531.52,248.26 534.71,248.26 537.91,248.26 541.11,248.26 544.31,248.26 547.50,248.26 550.70,248.26 553.90,248.26 557.09,248.26 560.29,236.59 563.49,236.59 566.68,236.59 569.88,236.59 573.08,236.59 576.27,236.59 579.47,236.59 582.67,236.59 585.86,236.59 589.06,236.59 592.26,236.59 595.45,236.59 598.65,236.59 601.85,236.59 605.04,236.59 608.24,236.59 611.44,236.59 614.63,236.59 617.83,236.59 621.03,236.59 624.22,218.69 627.42,218.69 630.62,218.69 633.82,218.69 637.01,218.69 640.21,218.69 643.41,218.69 646.60,218.69 649.80,218.69 653.00,218.69 656.19,218.69 659.39,218.69 662.59,218.69 665.78,218.69 668.98,218.69 672.18,218.69 675.37,218.69 678.57,218.69 681.77,218.69 684.96,218.69 688.16,212.34 691.36,208.06 694.55,206.87 697.75,206.87 700.95,206.87 704.14,206.87 707.34,206.87 710.54,206.87 713.73,206.87 716.93,206.87 720.13,206.87 723.33,206.87 726.52,206.87 729.72,206.87 732.92,206.87 736.11,206.87 739.31,206.87 742.51,206.87 745.70,206.87 748.90,206.87 752.10,204.42 755.29,203.82 758.49,203.82 761.69,203.82 764.88,203.82 768.08,203.82 771.28,203.82 774.47,203.82 777.67,203.82 780.87,203.82 784.06,203.82 787.26,203.82 790.46,203.82 793.65,203.82 796.85,203.82 800.05,203.82 803.24,203.82 806.44,203.82 809.64,203.82 812.84,203.82 816.03,204.77 819.23,204.77 822.43,204.77 825.62,204.77 828.82,204.77 832.02,204.77 835.21,204.77 838.41,204.77 841.61,204.77 844.80,204.77 848.00,204.77" />
<text x="52" y="404" fill="#ef4444" font-size="14">naive</text>
<text x="222" y="404" fill="#f59e0b" font-size="14">baseline</text>
<text x="392" y="404" fill="#3b82f6" font-size="14">adaptive</text>
<text x="562" y="404" fill="#22c55e" font-size="14">comptext_v7</text>
</svg>