<svg xmlns="http://www.w3.org/2000/svg" width="900" height="420" viewBox="0 0 900 420">
<rect width="100%" height="100%" fill="#0f172a" />
<text x="52" y="32" fill="#e2e8f0" font-size="22" font-family="sans-serif">Temporal consistency degradation</text>
<line x1="52" y1="368" x2="848" y2="368" stroke="#94a3b8" />
<line x1="52" y1="52" x2="52" y2="368" stroke="#94a3b8" />
<polyline fill="none" stroke="#ef4444" stroke-width="3" points="52.00,302.17 55.20,302.17 58.39,302.17 61.59,368.00 64.79,368.00 67.98,368.00 71.18,368.00 74.38,368.00 77.57,368.00 80.77,368.00 83.97,368.00 87.16,368.00 90.36,368.00 93.56,368.00 96.76,368.00 99.95,368.00 103.15,368.00 106.35,368.00 109.54,368.00 112.74,368.00 115.94,368.00 119.13,368.00 122.33,368.00 125.53,368.00 128.72,368.00 131.92,368.00 135.12,368.00 138.31,368.00 141.51,368.00 144.71,368.00 147.90,368.00 151.10,368.00 154.30,368.00 157.49,368.00 160.69,368.00 163.89,368.00 167.08,368.00 170.28,368.00 173.48,368.00 176.67,368.00 179.87,368.00 183.07,368.00 186.27,368.00 189.46,368.00 192.66,368.00 195.86,368.00 199.05,368.00 202.25,368.00 205.45,368.00 208.64,368.00 211.84,368.00 215.04,368.00 218.23,368.00 221.43,368.00 224.63,368.00 227.82,368.00 231.02,368.00 234.22,368.00 237.41,368.00 240.61,368.00 243.81,368.00 247.00,368.00 250.20,368.00 253.40,368.00 256.59,368.00 259.79,368.00 262.99,368.00 266.18,368.00 269.38,368.00 272.58,368.00 275.78,368.00 278.97,368.00 282.17,368.00 285.37,368.00 288.56,368.00 291.76,368.00 294.96,368.00 298.15,368.00 301.35,368.00 304.55,368.00 307.74,368.00 310.94,368.00 314.14,368.00 317.33,368.00 320.53,368.00 323.73,368.00 326.92,368.00 330.12,368.00 333.32,368.00 336.51,368.00 339.71,368.00 342.91,368.00 346.10,368.00 349.30,368.00 352.50,368.00 355.69,368.00 358.89,368.00 362.09,368.00 365.29,368.00 368.48,368.00 371.68,368.00 374.88,368.00 378.07,368.00 381.27,368.00 384.47,368.00 387.66,368.00 390.86,368.00 394.06,368.00 397.25,368.00 400.45,368.00 403.65,368.00 406.84,368.00 410.04,368.00 413.24,368.00 416.43,368.00 419.63,368.00 422.83,368.00 426.02,368.00 429.22,368.00 432.42,368.00 435.61,368.00 438.81,368.00 442.01,368.00 445.20,368.00 448.40,368.00 451.60,368.00 454.80,368.00 457.99,368.00 461.19,368.00 464.39,368.00 467.58,368.00 470.78,368.00 473.98,368.00 477.17,368.00 480.37,368.00 483.57,368.00 486.76,368.00 489.96,368.00 493.16,368.00 496.35,368.00 499.55,368.00 502.75,368.00 505.94,368.00 509.14,368.00 512.34,368.00 515.53,368.00 518.73,368.00 521.93,368.00 525.12,368.00 528.32,368.00 531.52,368.00 534.71,368.00 537.91,368.00 541.11,368.00 544.31,368.00 547.50,368.00 550.70,368.00 553.90,368.00 557.09,368.00 560.29,368.00 563.49,368.00 566.68,368.00 569.88,368.00 573.08,368.00 576.27,368.00 579.47,368.00 582.67,368.00 585.86,368.00 589.06,368.00 592.26,368.00 595.45,368.00 598.65,368.00 601.85,368.00 605.04,368.00 608.24,368.00 611.44,368.00 614.63,368.00 617.83,368.00 621.03,368.00 624.22,368.00 627.42,368.00 630.62,368.00 633.82,368.00 637.01,368.00 640.21,368.00 643.41,368.00 646.60,368.00 649.80,368.00 653.00,368.00 656.19,368.00 659.39,368.00 662.59,368.00 665.78,368.00 668.98,368.00 672.18,368.00 675.37,368.00 678.57,368.00 681.77,368.00 684.96,368.00 688.16,368.00 691.36,368.00 694.55,368.00 697.75,368.00 700.95,368.00 704.14,368.00 707.34,368.00 710.54,368.00 713.73,368.00 716.93,368.00 720.13,368.00 723.33,368.00 726.52,368.00 729.72,368.00 732.92,368.00 736.11,368.00 739.31,368.00 742.51,368.00 745.70,368.00 748.90,368.00 752.10,368.00 755.29,368.00 758.49,368.00 761.69,368.00 764.88,368.00 768.08,368.00 771.28,368.00 774.47,368.00 777.67,368.00 780.87,368.00 784.06,368.00 787.26,368.00 790.46,368.00 793.65,368.00 796.85,368.00 800.05,368.00 803.24,368.00 806.44,368.00 809.64,368.00 812.84,368.00 816.03,368.00 819.23,368.00 822.43,368.00 825.62,368.00 828.82,368.00 832.02,368.00 835.21,368.00 838.41,368.00 841.61,368.00 844.80,368.00 848.00,368.00" />
<polyline fill="none" stroke="#f59e0b" stroke-width="3" points="52.00,170.50 55.20,170.50 58.39,170.50 61.59,170.50 64.79,170.50 67.98,170.50 71.18,170.50 74.38,368.00 77.57,368.00 80.77,368.00 83.97,368.00 87.16,368.00 90.36,368.00 93.56,368.00 96.76,368.00 99.95,302.17 103.15,302.17 106.35,302.17 109.54,302.17 112.74,302.17 115.94,302.17 119.13,302.17 122.33,302.17 125.53,302.17 128.72,302.17 131.92,302.17 135.12,302.17 138.31,302.17 141.51,302.17 144.71,302.17 147.90,302.17 151.10,302.17 154.30,302.17 157.49,302.17 160.69,302.17 163.89,302.17 167.08,302.17 170.28,302.17 173.48,302.17 176.67,302.17 179.87,302.17 183.07,302.17 186.27,302.17 189.46,302.17 192.66,302.17 195.86,302.17 199.05,302.17 202.25,302.17 205.45,302.17 208.64,302.17 211.84,302.17 215.04,302.17 218.23,302.17 221.43,302.17 224.63,302.17 227.82,302.17 231.02,302.17 234.22,302.17 237.41,302.17 240.61,302.17 243.81,302.17 247.00,302.17 250.20,302.17 253.40,302.17 256.59,302.17 259.79,302.17 262.99,302.17 266.18,302.17 269.38,302.17 272.58,302.17 275.78,302.17 278.97,302.17 282.17,302.17 285.37,302.17 288.56,302.17 291.76,302.17 294.96,302.17 298.15,302.17 301.35,302.17 304.55,302.17 307.74,302.17 310.94,302.17 314.14,302.17 317.33,302.17 320.53,302.17 323.73,302.17 326.92,302.17 330.12,302.17 333.32,302.17 336.51,302.17 339.71,302.17 342.91,302.17 346.10,302.17 349.30,302.17 352.50,302.17 355.69,302.17 358.89,302.17 362.09,302.17 365.29,302.17 368.48,302.17 371.68,302.17 374.88,302.17 378.07,302.17 381.27,302.17 384.47,302.17 387.66,302.17 390.86,302.17 394.06,302.17 397.25,302.17 400.45,302.17 403.65,302.17 406.84,302.17 410.04,302.17 413.24,302.17 416.43,302.17 419.63,302.17 422.83,302.17 426.02,302.17 429.22,302.17 432.42,302.17 435.61,302.17 438.81,302.17 442.01,302.17 445.20,302.17 448.40,302.17 451.60,302.17 454.80,302.17 457.99,302.17 461.19,302.17 464.39,302.17 467.58,302.17 470.78,302.17 473.98,302.17 477.17,302.17 480.37,302.17 483.57,302.17 486.76,302.17 489.96,302.17 493.16,302.17 496.35,302.17 499.55,302.17 502.75,302.17 505.94,302.17 509.14,302.17 512.34,302.17 515.53,302.17 518.73,302.17 521.93,302.17 525.12,302.17 528.32,302.17 531.52,302.17 534.71,302.17 537.91,302.17 541.11,302.17 544.31,302.17 547.50,302.17 550.70,302.17 553.90,302.17 557.09,302.17 560.29,302.17 563.49,302.17 566.68,302.17 569.88,302.17 573.08,302.17 576.27,302.17 579.47,302.17 582.67,302.17 585.86,302.17 589.06,302.17 592.26,302.17 595.45,302.17 598.65,302.17 601.85,302.17 605.04,302.17 608.24,302.17 611.44,302.17 614.63,302.17 617.83,302.17 621.03,302.17 624.22,302.17 627.42,302.17 630.62,302.17 633.82,302.17 637.01,302.17 640.21,302.17 643.41,302.17 646.60,302.17 649.80,302.17 653.00,302.17 656.19,302.17 659.39,302.17 662.59,302.17 665.78,302.17 668.98,302.17 672.18,302.17 675.37,302.17 678.57,302.17 681.77,302.17 684.96,302.17 688.16,302.17 691.36,302.17 694.55,302.17 697.75,302.17 700.95,302.17 704.14,302.17 707.34,302.17 710.54,302.17 713.73,302.17 716.93,302.17 720.13,302.17 723.33,302.17 726.52,302.17 729.72,302.17 732.92,302.17 736.11,302.17 739.31,302.17 742.51,302.17 745.70,302.17 748.90,302.17 752.10,302.17 755.29,302.17 758.49,302.17 761.69,302.17 764.88,302.17 768.08,302.17 771.28,302.17 774.47,302.17 777.67,302.17 780.87,302.17 784.06,302.17 787.26,302.17 790.46,302.17 793.65,302.17 796.85,302.17 800.05,302.17 803.24,302.17 806.44,302.17 809.64,302.17 812.84,302.17 816.03,302.17 819.23,302.17 822.43,302.17 825.62,302.17 828.82,302.17 832.02,302.17 835.21,302.17 838.41,302.17 841.61,302.17 844.80,302.17 848.00,302.17" />
<polyline fill="none" stroke="#3b82f6" stroke-width="3" points="52.00,115.20 55.20,115.20 58.39,115.20 61.59,115.20 64.79,115.20 67.98,115.20 71.18,115.20 74.38,115.20 77.57,115.20 80.77,115.20 83.97,115.20 87.16,115.20 90.36,115.20 93.56,115.20 96.76,368.00 99.95,368.00 103.15,368.00 106.35,368.00 109.54,368.00 112.74,368.00 115.94,368.00 119.13,368.00 122.33,368.00 125.53,368.00 128.72,368.00 131.92,368.00 135.12,368.00 138.31,368.00 141.51,368.00 144.71,170.50 147.90,170.50 151.10,236.33 154.30,236.33 157.49,236.33 160.69,236.33 163.89,236.33 167.08,236.33 170.28,236.33 173.48,236.33 176.67,236.33 179.87,236.33 183.07,236.33 186.27,236.33 189.46,236.33 192.66,368.00 195.86,368.00 199.05,368.00 202.25,302.17 205.45,302.17 208.64,302.17 211.84,302.17 215.04,302.17 218.23,302.17 221.43,302.17 224.63,302.17 227.82,302.17 231.02,302.17 234.22,302.17 237.41,302.17 240.61,302.17 243.81,302.17 247.00,302.17 250.20,302.17 253.40,302.17 256.59,302.17 259.79,302.17 262.99,302.17 266.18,302.17 269.38,302.17 272.58,302.17 275.78,302.17 278.97,302.17 282.17,302.17 285.37,302.17 288.56,302.17 291.76,302.17 294.96,302.17 298.15,302.17 301.35,302.17 304.55,302.17 307.74,302.17 310.94,302.17 314.14,302.17 317.33,302.17 320.53,302.17 323.73,302.17 326.92,302.17 330.12,302.17 333.32,302.17 336.51,302.17 339.71,302.17 342.91,302.17 346.10,302.17 349.30,302.17 352.50,302.17 355.69,302.17 358.89,302.17 362.09,302.17 365.29,302.17 368.48,302.17 371.68,302.17 374.88,302.17 378.07,302.17 381.27,302.17 384.47,302.17 387.66,302.17 390.86,302.17 394.06,302.17 397.25,302.17 400.45,302.17 403.65,302.17 406.84,302.17 410.04,302.17 413.24,302.17 416.43,302.17 419.63,302.17 422.83,302.17 426.02,302.17 429.22,302.17 432.42,302.17 435.61,302.17 438.81,302.17 442.01,302.17 445.20,302.17 448.40,302.17 451.60,302.17 454.80,302.17 457.99,302.17 461.19,302.17 464.39,302.17 467.58,302.17 470.78,302.17 473.98,302.17 477.17,302.17 480.37,302.17 483.57,302.17 486.76,302.17 489.96,302.17 493.16,302.17 496.35,302.17 499.55,302.17 502.75,302.17 505.94,302.17 509.14,302.17 512.34,302.17 515.53,302.17 518.73,302.17 521.93,302.17 525.12,302.17 528.32,302.17 531.52,302.17 534.71,302.17 537.91,302.17 541.11,302.17 544.31,302.17 547.50,302.17 550.70,302.17 553.90,302.17 557.09,302.17 560.29,302.17 563.49,302.17 566.68,302.17 569.88,302.17 573.08,302.17 576.27,302.17 579.47,302.17 582.67,302.17 585.86,302.17 589.06,302.17 592.26,302.17 595.45,302.17 598.65,302.17 601.85,302.17 605.04,302.17 608.24,302.17 611.44,302.17 614.63,302.17 617.83,302.17 621.03,302.17 624.22,302.17 627.42,302.17 630.62,302.17 633.82,302.17 637.01,302.17 640.21,302.17 643.41,302.17 646.60,302.17 649.80,302.17 653.00,302.17 656.19,302.17 659.39,302.17 662.59,302.17 665.78,302.17 668.98,302.17 672.18,302.17 675.37,302.17 678.57,302.17 681.77,302.17 684.96,302.17 688.16,302.17 691.36,302.17 694.55,302.17 697.75,302.17 700.95,302.17 704.14,302.17 707.34,302.17 710.54,302.17 713.73,302.17 716.93,302.17 720.13,302.17 723.33,302.17 726.52,302.17 729.72,302.17 732.92,302.17 736.11,302.17 739.31,302.17 742.51,302.17 745.70,302.17 748.90,302.17 752.10,302.17 755.29,302.17 758.49,302.17 761.69,302.17 764.88,302.17 768.08,302.17 771.28,302.17 774.47,302.17 777.67,302.17 780.87,302.17 784.06,302.17 787.26,302.17 790.46,302.17 793.65,302.17 796.85,302.17 800.05,302.17 803.24,302.17 806.44,302.17 809.64,302.17 812.84,302.17 816.03,302.17 819.23,302.17 822.43,302.17 825.62,302.17 828.82,302.17 832.02,302.17 835.21,302.17 838.41,302.17 841.61,302.17 844.80,302.17 848.00,302.17" />
<polyline fill="none" stroke="#22c55e" stroke-width="3" points="52.00,52.00 55.20,52.00 58.39,52.00 61.59,52.00 64.79,52.00 67.98,52.00 71.18,52.00 74.38,52.00 77.57,52.00 80.77,52.00 83.97,52.00 87.16,52.00 90.36,52.00 93.56,52.00 96.76,52.00 99.95,52.00 103.15,52.00 106.35,52.00 109.54,52.00 112.74,52.00 115.94,52.00 119.13,52.00 122.33,52.00 125.53,52.00 128.72,52.00 131.92,52.00 135.12,52.00 138.31,52.00 141.51,52.00 144.71,52.00 147.90,52.00 151.10,52.00 154.30,52.00 157.49,52.00 160.69,52.00 163.89,52.00 167.08,52.00 170.28,52.00 173.48,52.00 176.67,52.00 179.87,52.00 183.07,52.00 186.27,52.00 189.46,52.00 192.66,52.00 195.86,52.00 199.05,52.00 202.25,52.00 205.45,52.00 208.64,52.00 211.84,52.00 215.04,52.00 218.23,52.00 221.43,52.00 224.63,52.00 227.82,52.00 231.02,52.00 234.22,52.00 237.41,52.00 240.61,52.00 243.81,52.00 247.00,52.00 250.20,52.00 253.40,52.00 256.59,52.00 259.79,52.00 262.99,52.00 266.18,52.00 269.38,52.00 272.58,52.00 275.78,52.00 278.97,52.00 282.17,52.00 285.37,52.00 288.56,52.00 291.76,52.00 294.96,52.00 298.15,52.00 301.35,52.00 304.55,52.00 307.74,52.00 310.94,52.00 314.14,52.00 317.33,52.00 320.53,52.00 323.73,52.00 326.92,52.00 330.12,52.00 333.32,52.00 336.51,52.00 339.71,52.00 342.91,52.00 346.10,52.00 349.30,52.00 352.50,52.00 355.69,52.00 358.89,52.00 362.09,52.00 365.29,52.00 368.48,52.00 371.68,52.00 374.88,52.00 378.07,52.00 381.27,52.00 384.47,52.00 387.66,52.00 390.86,52.00 394.06,52.00 397.25,52.00 400.45,52.00 403.65,52.00 406.84,52.00 410.04,52.00 413.24,52.00 416.43,52.00 419.63,52.00 422.83,52.00 426.02,52.00 429.22,52.00 432.42,52.00 435.61,52.00 438.81,52.00 442.01,52.00 445.20,52.00 448.40,52.00 451.60,52.00 454.80,52.00 457.99,52.00 461.19,52.00 464.39,52.00 467.58,52.00 470.78,52.00 473.98,52.00 477.17,52.00 480.37,52.00 483.57,52.00 486.76,52.00 489.96,52.00 493.16,52.00 496.35,52.00 499.55,52.00 502.75,52.00 505.94,52.00 509.14,52.00 512.34,52.00 515.53,52.00 518.73,52.00 521.93,52.00 525.12,52.00 528.32,52.00 531.52,52.00 534.71,52.00 537.91,52.00 541.11,52.00 544.31,52.00 547.50,52.00 550.70,52.00 553.90,52.00 557.09,52.00 560.29,52.00 563.49,52.00 566.68,52.00 569.88,52.00 573.08,52.00 576.27,52.00 579.47,52.00 582.67,52.00 585.86,52.00 589.06,52.00 592.26,52.00 595.45,52.00 598.65,52.00 601.85,52.00 605.04,52.00 608.24,52.00 611.44,52.00 614.63,52.00 617.83,52.00 621.03,52.00 624.22,52.00 627.42,52.00 630.62,52.00 633.82,52.00 637.01,52.00 640.21,52.00 643.41,52.00 646.60,52.00 649.80,52.00 653.00,52.00 656.19,52.00 659.39,52.00 662.59,52.00 665.78,52.00 668.98,52.00 672.18,52.00 675.37,52.00 678.57,52.00 681.77,52.00 684.96,52.00 688.16,107.30 691.36,154.70 694.55,170.50 697.75,170.50 700.95,170.50 704.14,170.50 707.34,170.50 710.54,170.50 713.73,170.50 716.93,170.50 720.13,170.50 723.33,170.50 726.52,170.50 729.72,170.50 732.92,170.50 736.11,170.50 739.31,170.50 742.51,170.50 745.70,170.50 748.90,170.50 752.10,170.50 755.29,170.50 758.49,170.50 761.69,170.50 764.88,170.50 768.08,170.50 771.28,170.50 774.47,170.50 777.67,170.50 780.87,170.50 784.06,170.50 787.26,170.50 790.46,170.50 793.65,170.50 796.85,170.50 800.05,170.50 803.24,170.50 806.44,170.50 809.64,170.50 812.84,170.50 816.03,170.50 819.23,170.50 822.43,170.50 825.62,170.50 828.82,170.50 832.02,170.50 835.21,170.50 838.41,170.50 841.61,170.50 844.80,170.50 848.00,170.50" />
<text x="52" y="404" fill="#ef4444" font-size="14">naive</text>
<text x="222" y="404" fill="#f59e0b" font-size="14">baseline</text>
<text x="392" y="404" fill="#3b82f6" font-size="14">adaptive</text>
<text x="562" y="404" fill="#22c55e" font-size="14">comptext_v7</text>
</svg>